<ttFont>
          <CharString index="0">
            rmoveto
            32 5 -18 23 -32 hhcurveto
            -32 -28 -23 -32 -5 hvcurveto
            -32 -6 19 -23 32 hhcurveto
            32 27 23 32 6 hvcurveto
            175 hmoveto
            32 5 -18 23 -32 hhcurveto
            -32 -28 -23 -32 -5 hvcurveto
            -32 -6 19 -23 32 hhcurveto
            32 27 23 32 6 hvcurveto
            endchar
          </CharString>
          <CharString index="1">
            530 hmoveto
            -82 -64 callgsubr
            -130 hlineto
            -328 -45 callsubr
            86 180 -23 callsubr
            24 -6 callgsubr
            -93 525 rmoveto
            14 30 11 40 0 vvcurveto
            4 hlineto
            0 -2 -39 3 -31 vhcurveto
            32 -275 rlineto
            -190 hlineto
            return
          </CharString>
          <CharString index="2">
            295 60 rmoveto
            -75 -41 50 110 19 hvcurveto
            85 480 -76 callsubr
            -85 -480 rlineto
            -150 -26 66 -80 -26 callsubr
            94 80 150 26 hvcurveto
            85 480 -76 callsubr
            -85 -480 rlineto
            -110 -19 -59 -50 -75 hhcurveto
            return
          </CharString>
          <CharString index="3">
            455 hmoveto
            -60 callgsubr
            46 260 -23 callsubr
            12 70 rlineto
            -230 hlineto
            -43 callsubr
            290 hlineto
            12 70 rlineto
            -390 hlineto
            -95 callgsubr
            return
          </CharString>
          <CharString index="4">
            rmoveto
            -11 callsubr
            65 hlineto
            117 150 rlineto
            endchar
          </CharString>
          <CharString index="5">
            91 350 rmoveto
            -260 -46 83 -100 160 hhcurveto
            110 74 -37 callgsubr
            -24 60 rlineto
            -10 hlineto
            0 -58 -45 -70 -100 -58 70 220 39 vhcurveto
            220 39 82 70 90 hhcurveto
            70 -96 callgsubr
            -110 -150 -118 -100 -260 -46 vhcurveto
            return
          </CharString>
          <CharString index="6">
            256 65 rmoveto
            -55 -33 40 55 10 hvcurveto
            60 340 -76 callsubr
            -60 -340 rlineto
            -100 -18 58 -70 100 -72 callsubr
            return
          </CharString>
          <CharString index="7">
            6 35 56 30 0 vvcurveto
            -70 hlineto
            0 -57 -35 -7 -45 vhcurveto
            -45 -8 24 -30 60 hhcurveto
            50 35 25 0 hvcurveto
            9 52 rlineto
            -9 hlineto
            return
          </CharString>
          <CharString index="8">
            rmoveto
            20 18 -15 -30 -6 hvcurveto
            -30 -5 -22 -15 -20 hhcurveto
            -20 -18 15 30 5 hvcurveto
            30 6 22 15 20 hhcurveto
            9 50 rmoveto
            -60 -47 -40 -55 -10 hvcurveto
            -55 -9 33 -40 60 hhcurveto
            60 47 40 55 9 hvcurveto
            55 10 -33 40 -60 hhcurveto
            endchar
          </CharString>
          <CharString index="9">
            rmoveto
            1 -24 -40 -30 hhcurveto
            hintmask 00001000
            -30 -2 45 -50 hhcurveto
            -50 -32 -40 -45 -23 hvcurveto
            36 -25 rlineto
            9 hlineto
            -1 24 40 30 hhcurveto
            hintmask 00100000
            30 2 -45 50 hhcurveto
            50 32 40 45 23 hvcurveto
            -36 25 rlineto
            endchar
          </CharString>
          <CharString index="10">
            0 -56 -60 -60 -60 -25 30 50 9 vhcurveto
            45 8 41 35 80 hhcurveto
            80 hlineto
            return
          </CharString>
          <CharString index="11">
            45 -84 callsubr
            -46 -60 rlineto
            0 return
          </CharString>
          <CharString index="12">
            rmoveto
            -90 callsubr
            -35 -6 20 -25 35 hhcurveto
            35 30 -31 callgsubr
            return
          </CharString>
          <CharString index="13">
            331 435 rmoveto
            55 33 -40 -55 -10 hvcurveto
            -69 callsubr
            -100 hhcurveto
            -100 -57 -70 0 hvcurveto
            -5 hlineto
            return
          </CharString>
          <CharString index="14">
            -25 -18 15 1 hhcurveto
            -9 hlineto
            -22 -40 rlineto
            0 25 -20 50 60 41 35 45 8 vhcurveto
            45 8 -29 35 -55 hhcurveto
            endchar
          </CharString>
          <CharString index="15">
            -21 -10 callsubr
            -29 -25 -35 return
          </CharString>
          <CharString index="16">
            rmoveto
            10 callsubr
            35 hhcurveto
            35 29 -31 callgsubr
            35 6 -20 -10 callsubr
            -30 -46 callsubr
            return
          </CharString>
          <CharString index="17">
            35 6 -92 callsubr
            -6 hvcurveto
            return
          </CharString>
          <CharString index="18">
            rmoveto
            63 -150 -71 callgsubr
            -18 150 rlineto
            endchar
          </CharString>
          <CharString index="19">
            -175 -31 70 -85 return
          </CharString>
          <CharString index="20">
            -90 -16 -35 -30 -40 hhcurveto
            -40 -25 30 90 16 hvcurveto
            90 16 35 30 40 hhcurveto
            11 60 rmoveto
            -95 -77 -65 -115 -20 hvcurveto
            -115 -20 53 -65 95 hhcurveto
            95 77 65 7 callgsubr
            hvcurveto
            7 callgsubr
            -53 65 -95 hhcurveto
            return
          </CharString>
          <CharString index="21">
            58 0 70 250 80 12 callsubr
            hstem
            65 6 callgsubr
            -18 callgsubr
            -53 -300 rlineto
            -55 -31 callsubr
            55 hlineto
            -56 -320 rlineto
            112 70 rmoveto
            44 250 -20 callsubr
            14 80 rlineto
            -115 hlineto
            41 230 -63 callgsubr
            endchar
          </CharString>
          <CharString index="22">
            rmoveto
            -12 -70 rlineto
            270 hlineto
            12 70 rlineto
            endchar
          </CharString>
          <CharString index="23">
            0 hvcurveto
            -10 hlineto
            return
          </CharString>
          <CharString index="24">
            203 6 callsubr
            -35 -30 -118 -670 -79 callsubr
            44 250 136 -250 -20 callsubr
            -145 260 223 240 rlineto
            -115 hlineto
            -211 -230 76 430 rlineto
            return
          </CharString>
          <CharString index="25">
            -277 -200 70 630 -20 100 120 hstem
            50 100 vstem
            272 640 rmoveto
            -97 callgsubr
            -319 -770 rmoveto
            -30 -21 25 -84 callsubr
            -36 -65 rlineto
            0 34 -30 60 99 33 callsubr
            96 540 -76 callsubr
            -96 -540 rlineto
            -60 -10 -35 -30 -44 hhcurveto
            endchar
          </CharString>
          <CharString index="26">
            -67 -56 callgsubr
            239 185 rmoveto
            0 4 -24 7 -16 vhcurveto
            60 -145 -1 callgsubr
            -111 255 194 245 rlineto
            -110 hlineto
            -105 -140 rlineto
            -12 -16 -13 -24 -87 callgsubr
            -5 24 -6 16 vhcurveto
            -55 140 rlineto
            -110 hlineto
            106 -245 -199 -255 -1 callgsubr
            110 145 rlineto
            13 16 12 24 0 vvcurveto
            endchar
          </CharString>
          <CharString index="27">
            -88 callgsubr
            hvcurveto
            -88 callsubr
            return
          </CharString>
          <CharString index="28">
            rlineto
            100 hlineto
            return
          </CharString>
          <CharString index="29">
            0 -46 callgsubr
            12 callsubr
            return
          </CharString>
          <CharString index="30">
            120 vstem
            23 50 rmoveto
            21 callsubr
            24 -35 rlineto
            0 99 55 21 115 vhcurveto
            45 7 -67 callsubr
            return
          </CharString>
          <CharString index="31">
            rlineto
            -100 hlineto
            return
          </CharString>
          <CharString index="32">
            hlineto
            -123 -45 callsubr
            return
          </CharString>
          <CharString index="33">
            rmoveto
            -35 -6 20 -25 35 hhcurveto
            35 30 -31 callgsubr
            -90 callsubr
            return
          </CharString>
          <CharString index="34">
            hlineto
            140 70 60 105 19 hvcurveto
            105 18 -49 60 -140 hhcurveto
            -13 -70 rmoveto
            70 25 -30 -65 -11 hvcurveto
            return
          </CharString>
          <CharString index="35">
            hhcurveto
            100 57 70 -68 callgsubr
            return
          </CharString>
          <CharString index="36">
            35 6 -20 25 -30 hhcurveto
            7 45 63 40 0 vvcurveto
            -24 35 rlineto
            0 -100 -55 -20 -115 vhcurveto
            -45 -8 20 -25 40 hhcurveto
            30 30 -31 callgsubr
            return
          </CharString>
          <CharString index="37">
            370 285 rmoveto
            23 30 19 40 0 vvcurveto
            4 hlineto
            0 -11 -40 -5 -30 vhcurveto
            -50 -285 -79 callsubr
            -52 callsubr
            -221 -285 rlineto
            -23 -30 -19 -40 -87 callgsubr
            11 40 5 30 vhcurveto
            51 285 -54 callgsubr
            return
          </CharString>
          <CharString index="38">
            -59 -340 -79 callsubr
            59 340 rlineto
            100 18 -58 70 return
          </CharString>
          <CharString index="39">
            103 21 -21 320 70 310 -14 callgsubr
            250 100 vstem
            538 6 callsubr
            -55 -310 rlineto
            -250 hlineto
            55 310 -75 callgsubr
            -30 callsubr
            250 hlineto
            -56 -320 rlineto
            -57 callsubr
            endchar
          </CharString>
          <CharString index="40">
            -20 25 -40 hhcurveto
            -30 -30 -46 callsubr
            return
          </CharString>
          <CharString index="41">
            88 -36 callsubr
            return
          </CharString>
          <CharString index="42">
            -21 700 -20 return
          </CharString>
          <CharString index="43">
            hlineto
            50 25 -30 -45 2 hvcurveto
            6 -160 rlineto
            hintmask 10110100
            -60 3 30 -40 65 hhcurveto
            hintmask 01110100
            40 22 10 0 hvcurveto
            1 65 rlineto
            -5 hlineto
            hintmask 10110100
            0 -11 -5 -10 -20 -10 15 30 -2 vhcurveto
            -7 160 rlineto
            -4 85 -83 15 0 vvcurveto
            return
          </CharString>
          <CharString index="44">
            30 13 -15 -20 -4 hvcurveto
            -20 -3 -18 -15 -25 hhcurveto
            return
          </CharString>
          <CharString index="45">
            0 88 10 28 80 vhcurveto
            49 140 rlineto
            30 11 17 15 20 -55 callsubr
            -18 10 -40 -65 -46 -40 -60 -22 vhcurveto
            -50 -140 rlineto
            -45 -16 -37 -30 -55 hhcurveto
            return
          </CharString>
          <CharString index="46">
            21 -21 180 70 450 -20 return
          </CharString>
          <CharString index="47">
            -10 -42 callgsubr
            return
          </CharString>
          <CharString index="48">
            -10 -48 callsubr
            return
          </CharString>
          <CharString index="49">
            -10 -22 callsubr
            return
          </CharString>
          <CharString index="50">
            100 hlineto
            123 -64 callgsubr
            return
          </CharString>
          <CharString index="51">
            -21 -7 callsubr
            return
          </CharString>
          <CharString index="52">
            hhcurveto
            10 9 -5 -68 callgsubr
            hintmask 10101100
            22 65 rlineto
            hintmask 10110100
            0 return
          </CharString>
          <CharString index="53">
            23 -47 callgsubr
            return
          </CharString>
          <CharString index="54">
            35 85 rlineto
            20 8 12 10 15 -55 callsubr
            -24 10 -35 -57 -35 -30 -55 -23 vhcurveto
            -35 -85 rlineto
            -30 -12 -23 -20 -38 hhcurveto
            return
          </CharString>
          <CharString index="55">
            -66 callsubr
            -100 hlineto
            return
          </CharString>
          <CharString index="56">
            rlineto
            -65 hlineto
            return
          </CharString>
          <CharString index="57">
            -11 callsubr
            55 hlineto
            112 150 rlineto
            return
          </CharString>
          <CharString index="58">
            hstemhm
            25 100 210 100 return
          </CharString>
          <CharString index="59">
            70 380 70 return
          </CharString>
          <CharString index="60">
            -44 callsubr
            hintmask 00110000
            return
          </CharString>
          <CharString index="61">
            -9 callgsubr
            hvcurveto
            return
          </CharString>
          <CharString index="62">
            -700 -79 callsubr
            return
          </CharString>
          <CharString index="63">
            hintmask 11000000
            -69 callgsubr
            return
          </CharString>
          <CharString index="64">
            41 230 rlineto
            return
          </CharString>
          <CharString index="65">
            46 -13 callgsubr
            return
          </CharString>
          <CharString index="66">
            -100 hlineto
            -111 -630 rlineto
            -220 hlineto
            4 callsubr
            -100 hlineto
            -111 -630 rlineto
            -220 hlineto
            4 callsubr
            -100 hlineto
            return
          </CharString>
          <CharString index="67">
            -30 callgsubr
            220 70 150 70 -10 -20 return
          </CharString>
          <CharString index="68">
            rmoveto
            -60 hlineto
            -17 -95 rlineto
            40 hlineto
            return
          </CharString>
          <CharString index="69">
            hhcurveto
            -12 -70 rmoveto
            return
          </CharString>
          <CharString index="70">
            -10 -140 rlineto
            80 hlineto
            37 210 -51 callsubr
            76 430 rlineto
            return
          </CharString>
          <CharString index="71">
            500 rlineto
            return
          </CharString>
          <CharString index="72">
            110 20 -66 80 -145 hhcurveto
            -130 -75 -55 0 hvcurveto
            24 -60 rlineto
            10 hlineto
            0 58 45 90 85 42 -50 -60 -11 vhcurveto
            return
          </CharString>
          <CharString index="73">
            110 65 110 return
          </CharString>
          <CharString index="74">
            -41 50 -41 callgsubr
            return
          </CharString>
          <CharString index="75">
            -100 hlineto
            -76 -430 rlineto
            -170 hlineto
            76 430 -76 callsubr
            -76 -430 rlineto
            -170 hlineto
            76 430 -76 callsubr
            return
          </CharString>
          <CharString index="76">
            hlineto
            -14 -80 rlineto
            return
          </CharString>
          <CharString index="77">
            56 8 callgsubr
            return
          </CharString>
          <CharString index="78">
            hmoveto
            -27 callgsubr
          </CharString>
          <CharString index="79">
            50 -91 callsubr
            return
          </CharString>
          <CharString index="80">
            -205 -36 callgsubr
            51 -21 return
          </CharString>
          <CharString index="81">
            145 hhcurveto
            145 return
          </CharString>
          <CharString index="82">
            60 -60 130 hstemhm
            return
          </CharString>
          <CharString index="83">
            30 100 290 100 return
          </CharString>
          <CharString index="84">
            rlineto
            230 hlineto
            return
          </CharString>
          <CharString index="85">
            75 -44 -21 return
          </CharString>
          <CharString index="86">
            -90 callsubr
            -35 -7 21 -25 35 hhcurveto
            35 29 25 35 7 hvcurveto
            return
          </CharString>
          <CharString index="87">
            rlineto
            115 hlineto
            return
          </CharString>
          <CharString index="88">
            70 155 70 return
          </CharString>
          <CharString index="89">
            -33 callgsubr
            -100 -17 -59 -50 return
          </CharString>
          <CharString index="90">
            hhcurveto
            -60 -42 -96 callsubr
            return
          </CharString>
          <CharString index="91">
            -140 210 -70 70 430 -20 hstemhm
            50 100 return
          </CharString>
          <CharString index="92">
            hhcurveto
            3 callsubr
            return
          </CharString>
          <CharString index="93">
            hlineto
            -6 callsubr
            return
          </CharString>
          <CharString index="94">
            -87 290 80 hstem
            436 290 12 callgsubr
            -380 -31 callsubr
            endchar
          </CharString>
          <CharString index="95">
            -500 rlineto
            return
          </CharString>
          <CharString index="96">
            -72 13 callsubr
            return
          </CharString>
          <CharString index="97">
            25 -35 hhcurveto
            -35 return
          </CharString>
          <CharString index="98">
            30 170 return
          </CharString>
          <CharString index="99">
            -90 -16 hvcurveto
            return
          </CharString>
          <CharString index="100">
            130 -20 return
          </CharString>
          <CharString index="101">
            -13 -70 rlineto
            return
          </CharString>
          <CharString index="102">
            460 240 hstem
            116 460 rmoveto
            65 hlineto
            62 240 rlineto
            -105 hlineto
            return
          </CharString>
          <CharString index="103">
            hstemhm
            5 callgsubr
            return
          </CharString>
          <CharString index="104">
            -21 500 -20 return
          </CharString>
          <CharString index="105">
            21 -21 430 return
          </CharString>
          <CharString index="106">
            -120 hhcurveto
            return
          </CharString>
          <CharString index="107">
            21 28 callgsubr
            return
          </CharString>
          <CharString index="108">
            -70 hlineto
            -21 -60 rlineto
            -5 hlineto
            return
          </CharString>
          <CharString index="109">
            -179 -21 190 return
          </CharString>
          <CharString index="110">
            -10 -9 5 0 hvcurveto
            return
          </CharString>
          <CharString index="111">
            111 630 rlineto
            return
          </CharString>
          <CharString index="112">
            60 100 250 100 return
          </CharString>
          <CharString index="113">
            700 rmoveto
            return
          </CharString>
          <CharString index="114">
            250 rmoveto
            return
          </CharString>
          <CharString index="115">
            48 21 31 callgsubr
            return
          </CharString>
          <CharString index="116">
            -77 callgsubr
            70 -32 callgsubr
            return
          </CharString>
          <CharString index="117">
            -35 -6 21 -25 return
          </CharString>
          <CharString index="118">
            -20 17 callgsubr
            return
          </CharString>
          <CharString index="119">
            230 70 return
          </CharString>
          <CharString index="120">
            -150 rlineto
            return
          </CharString>
          <CharString index="121">
            0 23 -10 30 75 57 50 120 28 vhcurveto
            62 270 rlineto
            return
          </CharString>
          <CharString index="122">
            hlineto
            33 190 rlineto
            endchar
          </CharString>
          <CharString index="123">
            -30 -170 return
          </CharString>
          <CharString index="124">
            -10 0 hvcurveto
            -2 -65 rlineto
            5 hlineto
            hintmask 10110100
            0 11 5 10 return
          </CharString>
          <CharString index="125">
            rmoveto
            -71 -150 -71 callgsubr
            116 150 rlineto
            endchar
          </CharString>
          <CharString index="126">
            50 45 33 -40 -55 -10 vhcurveto
            -59 -340 -79 callsubr
            return
          </CharString>
          <CharString index="127">
            18 0 callsubr
            return
          </CharString>
          <CharString index="128">
            10 callsubr
            30 hhcurveto
            -8 -45 -62 -40 0 vvcurveto
            return
          </CharString>
          <CharString index="129">
            hstem
            -25 callgsubr
            vstem
            538 500 rmoveto
            return
          </CharString>
          <CharString index="130">
            122 125 rmoveto
            1 callsubr
            return
          </CharString>
          <CharString index="131">
            -30 callgsubr
            325 70 245 70 -10 -20 return
          </CharString>
          <CharString index="132">
            -60 70 vlineto
            123 -64 callgsubr
            -70 hlineto
            endchar
          </CharString>
          <CharString index="133">
            -59 callsubr
            hstem
            return
          </CharString>
          <CharString index="134">
            120 hstem
            15 120 return
          </CharString>
          <CharString index="135">
            -42 0 70 560 70 return
          </CharString>
          <CharString index="136">
            65 hmoveto
            100 -94 callgsubr
            return
          </CharString>
          <CharString index="137">
            rlineto
            100 18 -58 70 -100 hhcurveto
            return
          </CharString>
          <CharString index="138">
            -51 callgsubr
            65 hhcurveto
            return
          </CharString>
          <CharString index="139">
            60 280 -20 hstem
            100 90 return
          </CharString>
          <CharString index="140">
            77 65 95 16 vhcurveto
            return
          </CharString>
          <CharString index="141">
            6 callsubr
            -100 hlineto
            return
          </CharString>
          <CharString index="142">
            0 53 15 65 85 41 -50 -75 -14 vhcurveto
            return
          </CharString>
          <CharString index="143">
            60 170 0 20 115 rrcurveto
            endchar
          </CharString>
        <CharString name=".notdef">
          -257 endchar
        </CharString>
        <CharString name="A">
          -62 callgsubr
          hstem
          -106 callsubr
          endchar
        </CharString>
        <CharString name="AE">
          288 0 70 130 70 60 70 12 callsubr
          hstem
          370 100 vstem
          760 hmoveto
          -60 callgsubr
          46 260 -23 callsubr
          12 70 rlineto
          -230 hlineto
          -43 callsubr
          290 hlineto
          12 70 rlineto
          -510 hlineto
          -418 -45 callsubr
          120 200 -23 callsubr
          -35 -200 rlineto
          61 630 rmoveto
          50 hlineto
          -64 -360 rlineto
          -200 hlineto
          endchar
        </CharString>
        <CharString name="Aacute">
          -62 callgsubr
          70 -32 callgsubr
          hintmask 11100000
          -106 callsubr
          hintmask 00010000
          206 650 -103 callsubr
        </CharString>
        <CharString name="Abreve">
          -62 callgsubr
          80 -25 callsubr
          145 -2 callgsubr
          hintmask 11100000
          -106 callsubr
          hintmask 00010110
          195 570 rmoveto
          hintmask 00001110
          -40 -17 -92 callgsubr
          hintmask 00010110
          -17 callgsubr
        </CharString>
        <CharString name="Acircumflex">
          -62 callgsubr
          91 -56 callsubr
          hstemhm
          hintmask 11100000
          -106 callsubr
          hintmask 00011000
          170 630 -99 callgsubr
        </CharString>
        <CharString name="Adieresis">
          -62 callgsubr
          75 110 hstemhm
          148 -34 callsubr
          hintmask 11100000
          -106 callsubr
          hintmask 00011100
          158 560 -107 callsubr
        </CharString>
        <CharString name="Agrave">
          -62 callgsubr
          70 -32 callgsubr
          hintmask 11100000
          -106 callsubr
          hintmask 00010000
          91 650 -89 callsubr
        </CharString>
        <CharString name="Amacron">
          -62 callgsubr
          100 70 hstemhm
          hintmask 11100000
          -106 callsubr
          hintmask 00010000
          65 600 -85 callsubr
        </CharString>
        <CharString name="Aogonek">
          48 -43 callgsubr
          -61 callsubr
          hstemhm
          410 70 hintmask 00111000
          -106 callsubr
          hintmask 10000100
          288 -350 -52 callgsubr
          hintmask 01000100
          -100 callsubr
          hintmask 10000100
          -45 callgsubr
        </CharString>
        <CharString name="Aring">
          -62 callgsubr
          60 50 90 50 hstemhm
          195 60 80 60 hintmask 11100000
          -106 callsubr
          hintmask 00011110
          205 630 -99 callsubr
        </CharString>
        <CharString name="Atilde">
          -62 callgsubr
          70 -26 callgsubr
          hintmask 11100000
          -106 callsubr
          hintmask 00001000
          283 610 -57 callgsubr
        </CharString>
        <CharString name="B">
          -91 callgsubr
        </CharString>
        <CharString name="C">
          -12 -60 callsubr
          hstem
          30 100 vstem
          -102 callsubr
          endchar
        </CharString>
        <CharString name="Cacute">
          -12 -60 callsubr
          40 -32 callgsubr
          30 100 hintmask 11010000
          -102 callsubr
          hintmask 00100000
          357 550 -103 callsubr
        </CharString>
        <CharString name="Ccaron">
          -12 -60 callsubr
          71 -56 callsubr
          hstemhm
          30 100 hintmask 11001000
          -102 callsubr
          hintmask 00110000
          359 410 -102 callgsubr
        </CharString>
        <CharString name="Ccedilla">
          -12 -28 callgsubr
          -30 -42 callgsubr
          hstemhm
          30 100 100 150 -65 65 hintmask 00011100
          -102 callsubr
          hintmask 10100010
          202 -330 -39 callsubr
          hintmask 11000001
          -63 callsubr
          hintmask 11000010
          -93 callsubr
        </CharString>
        <CharString name="D">
          58 0 70 560 70 hstem
          65 6 callgsubr
          -18 callgsubr
          -95 callgsubr
          112 70 rmoveto
          99 560 -63 callgsubr
          endchar
        </CharString>
        <CharString name="Dcaron">
          58 0 70 560 70 81 33 callgsubr
          240 100 hintmask 11001100
          -18 callgsubr
          -95 callgsubr
          112 70 rmoveto
          99 560 -63 callgsubr
          hintmask 00110000
          183 690 -102 callgsubr
        </CharString>
        <CharString name="Dcroat">
          -86 callsubr
        </CharString>
        <CharString name="E">
          -78 callsubr
          hstem
          65 100 vstem
          -104 callsubr
          endchar
        </CharString>
        <CharString name="Eacute">
          -78 callsubr
          50 150 17 callgsubr
          hintmask 11101000
          -104 callsubr
          hintmask 00010000
          343 900 -103 callsubr
        </CharString>
        <CharString name="Ecaron">
          -78 callsubr
          81 33 callgsubr
          hintmask 11100100
          -104 callsubr
          hintmask 00011000
          375 760 -102 callgsubr
        </CharString>
        <CharString name="Ecircumflex">
          -78 callsubr
          81 33 callgsubr
          hintmask 11100100
          -104 callsubr
          hintmask 00011000
          318 890 -99 callgsubr
        </CharString>
        <CharString name="Edieresis">
          -78 callsubr
          65 110 17 callgsubr
          -13 -34 callsubr
          hintmask 11101000
          -104 callsubr
          hintmask 00010110
          306 820 -107 callsubr
        </CharString>
        <CharString name="Edotaccent">
          -78 callsubr
          60 120 17 callgsubr
          82 120 hintmask 11101000
          -104 callsubr
          hintmask 00010100
          411 820 -95 callsubr
          endchar
        </CharString>
        <CharString name="Egrave">
          -78 callsubr
          50 150 17 callgsubr
          hintmask 11101000
          -104 callsubr
          hintmask 00010000
          248 900 -89 callsubr
        </CharString>
        <CharString name="Emacron">
          -78 callsubr
          90 70 17 callgsubr
          hintmask 11101000
          -104 callsubr
          hintmask 00010000
          213 860 -85 callsubr
        </CharString>
        <CharString name="Eogonek">
          -43 callgsubr
          -78 callsubr
          17 callgsubr
          30 70 hintmask 00111100
          -104 callsubr
          hintmask 10000010
          217 -100 -52 callgsubr
          hintmask 01000010
          -100 callsubr
          hintmask 10000010
          -45 callgsubr
        </CharString>
        <CharString name="Eth">
          -86 callsubr
        </CharString>
        <CharString name="Euro">
          18 -10 70 200 60 60 60 200 70 hstem
          60 100 vstem
          57 380 rmoveto
          70 hlineto
          -11 -60 -51 callsubr
          -21 -60 rlineto
          79 hlineto
          -194 -12 81 -76 140 hhcurveto
          110 74 -37 callgsubr
          -24 60 rlineto
          -10 hlineto
          0 -58 -45 -70 -85 -54 50 150 8 vhcurveto
          196 hlineto
          21 60 rlineto
          -210 hlineto
          11 60 rlineto
          214 hlineto
          20 60 rlineto
          -220 hlineto
          149 43 71 51 77 hhcurveto
          70 -96 callgsubr
          -110 -132 -107 -77 -193 -55 vhcurveto
          -64 hlineto
          endchar
        </CharString>
        <CharString name="F">
          -27 21 -21 320 70 240 70 hstem
          65 100 vstem
          165 hmoveto
          56 320 -23 callsubr
          12 70 rlineto
          -230 hlineto
          43 240 rlineto
          290 hlineto
          12 70 rlineto
          -390 hlineto
          -95 callgsubr
          endchar
        </CharString>
        <CharString name="G">
          38 -10 36 callgsubr
          130 215 vstemhm
          536 350 rmoveto
          -24 30 rlineto
          -185 -14 callsubr
          hintmask 11111000
          -93 callgsubr
          endchar
        </CharString>
        <CharString name="Gbreve">
          38 -10 70 250 -46 callgsubr
          40 -25 callsubr
          30 100 25 90 15 215 -110 90 hintmask 1110010100000000
          536 350 rmoveto
          -24 30 rlineto
          -185 hlineto
          -13 -70 rlineto
          -93 callgsubr
          hintmask 0001001010000000
          -68 765 rmoveto
          hintmask 0000101010000000
          -40 -17 -92 callgsubr
          hintmask 0001001010000000
          -17 callgsubr
        </CharString>
        <CharString name="Gcommaaccent">
          38 -245 -36 callgsubr
          60 36 callgsubr
          91 110 -71 215 hintmask 00111101
          536 350 rmoveto
          -24 30 rlineto
          -185 hlineto
          -13 -70 rlineto
          -93 callgsubr
          hintmask 11000010
          -274 -150 -105 callgsubr
        </CharString>
        <CharString name="H">
          -68 callsubr
        </CharString>
        <CharString name="I">
          -20 callgsubr
        </CharString>
        <CharString name="Iacute">
          -250 9 callsubr
          65 100 hintmask 11010000
          29 callsubr
          hintmask 00100000
          92 200 -103 callsubr
        </CharString>
        <CharString name="Icircumflex">
          -257 -77 callgsubr
          101 -56 callsubr
          hstemhm
          60 100 hintmask 11001000
          60 hmoveto
          100 -94 callgsubr
          hintmask 00110000
          48 190 -99 callgsubr
        </CharString>
        <CharString name="Idieresis">
          -267 -77 callgsubr
          85 110 hstemhm
          -5 110 -50 100 15 110 hintmask 11001000
          -11 callgsubr
          hintmask 00110100
          36 120 -107 callsubr
        </CharString>
        <CharString name="Idotaccent">
          -267 -77 callgsubr
          80 120 hstemhm
          55 100 -75 120 hintmask 11010000
          -11 callgsubr
          hintmask 00101000
          131 120 -95 callsubr
          endchar
        </CharString>
        <CharString name="Igrave">
          -249 9 callsubr
          63 100 hintmask 11010000
          63 hmoveto
          100 -94 callgsubr
          hintmask 00100000
          -33 200 -89 callsubr
        </CharString>
        <CharString name="Imacron">
          -267 -77 callgsubr
          100 70 hstemhm
          55 100 hintmask 11010000
          -11 callgsubr
          hintmask 00100000
          -59 150 -85 callsubr
        </CharString>
        <CharString name="Iogonek">
          -257 -43 callgsubr
          -77 callgsubr
          hstemhm
          40 70 -50 100 hintmask 00110100
          60 hmoveto
          100 -94 callgsubr
          hintmask 10001000
          -56 -800 -52 callgsubr
          hintmask 01001000
          -100 callsubr
          hintmask 10001000
          -45 callgsubr
        </CharString>
        <CharString name="Itilde">
          -277 -77 callgsubr
          100 -26 callgsubr
          50 100 hintmask 11000100
          50 hmoveto
          100 -94 callgsubr
          hintmask 00010000
          165 190 -98 callsubr
        </CharString>
        <CharString name="J">
          -102 -44 callgsubr
          hstem
          215 100 vstem
          110 60 rmoveto
          -45 -33 40 -84 callsubr
          -41 -65 rlineto
          0 47 -45 80 135 82 70 130 23 vhcurveto
          90 510 -76 callsubr
          -90 -510 rlineto
          -90 -16 -47 -40 -75 hhcurveto
          endchar
        </CharString>
        <CharString name="Jcircumflex">
          -117 -44 callgsubr
          81 -56 callsubr
          hstemhm
          215 100 hintmask 11001000
          110 60 rmoveto
          -45 -33 40 -84 callsubr
          -41 -65 rlineto
          0 47 -45 80 135 82 70 130 23 vhcurveto
          90 510 -76 callsubr
          -90 -510 rlineto
          -90 -16 -47 -40 -75 hhcurveto
          hintmask 00110000
          267 810 -99 callgsubr
        </CharString>
        <CharString name="K">
          28 -77 callgsubr
          hstem
          65 100 vstem
          338 360 rmoveto
          290 340 rlineto
          -115 hlineto
          -283 -330 58 330 -75 callgsubr
          61 350 174 -350 -20 callsubr
          endchar
        </CharString>
        <CharString name="Kcommaaccent">
          28 -27 callsubr
          700 11 callsubr
          48 110 hintmask 00111000
          338 360 rmoveto
          290 340 rlineto
          -115 hlineto
          -283 -330 58 330 -75 callgsubr
          61 350 174 -350 -20 callsubr
          hintmask 11000100
          -315 -65 -105 callgsubr
        </CharString>
        <CharString name="L">
          -37 0 70 630 -14 callgsubr
          vstem
          188 700 -66 callgsubr
          endchar
        </CharString>
        <CharString name="Lacute">
          -37 0 70 630 -20 70 150 17 callgsubr
          hintmask 11010000
          188 700 -66 callgsubr
          hintmask 00100000
          10 200 -103 callsubr
        </CharString>
        <CharString name="Lcaron">
          -37 0 70 435 -21 216 11 callsubr
          75 110 hintmask 01101000
          353 -73 callgsubr
          hintmask 10110000
          -165 55 -66 callgsubr
          endchar
        </CharString>
        <CharString name="Lcommaaccent">
          -37 -245 -36 callgsubr
          70 70 630 11 callsubr
          36 110 hintmask 00111000
          188 700 -66 callgsubr
          hintmask 11000100
          -100 -805 -105 callgsubr
        </CharString>
        <CharString name="Lslash">
          -55 0 70 630 -20 hstemhm
          -10 167 -100 100 -100 213 hintmask 11010000
          180 6 callsubr
          -56 -320 rlineto
          hintmask 11100000
          -76 -50 -20 -110 rlineto
          hintmask 11010000
          76 50 -47 -270 rlineto
          380 hlineto
          12 70 rlineto
          -280 hlineto
          48 275 rlineto
          hintmask 11001000
          128 85 20 110 rlineto
          hintmask 11100000
          -128 -85 43 245 rlineto
          endchar
        </CharString>
        <CharString name="M">
          313 21 -21 505 -20 215 -14 callgsubr
          460 100 vstem
          288 700 rmoveto
          -100 -75 callsubr
          74 420 rlineto
          5 30 6 55 0 vvcurveto
          4 hlineto
          0 5 -55 10 -30 vhcurveto
          98 -295 -79 callsubr
          202 295 rlineto
          20 30 25 55 0 vvcurveto
          4 hlineto
          0 -14 -55 -5 -30 vhcurveto
          -74 -420 rlineto
          100 -94 callgsubr
          -285 -425 rlineto
          -13 -16 -14 -34 -87 callgsubr
          -2 34 -7 16 vhcurveto
          endchar
        </CharString>
        <CharString name="N">
          26 callgsubr
          hstem
          65 100 250 100 vstem
          405 hmoveto
          110 -94 callgsubr
          -79 -445 rlineto
          -5 -30 -6 -15 callgsubr
          -6 55 -9 30 vhcurveto
          -131 445 rlineto
          -110 -75 callsubr
          78 445 rlineto
          5 30 6 55 0 vvcurveto
          4 hlineto
          0 6 -55 9 -30 vhcurveto
          endchar
        </CharString>
        <CharString name="Nacute">
          26 callgsubr
          60 150 17 callgsubr
          250 100 hintmask 11011000
          405 hmoveto
          110 -94 callgsubr
          -79 -445 rlineto
          -5 -30 -6 -15 callgsubr
          -6 55 -9 30 vhcurveto
          -131 445 rlineto
          -110 -75 callsubr
          78 445 rlineto
          5 30 6 55 0 vvcurveto
          4 hlineto
          0 6 -55 9 -30 vhcurveto
          hintmask 00100000
          170 445 -103 callsubr
        </CharString>
        <CharString name="Ncaron">
          26 callgsubr
          91 33 callgsubr
          250 100 hintmask 11001100
          405 hmoveto
          110 -94 callgsubr
          -79 -445 rlineto
          -5 -30 -6 -15 callgsubr
          -6 55 -9 30 vhcurveto
          -131 445 rlineto
          -110 -75 callsubr
          78 445 rlineto
          5 30 6 55 0 vvcurveto
          4 hlineto
          0 6 -55 9 -30 vhcurveto
          hintmask 00110000
          183 305 -102 callgsubr
        </CharString>
        <CharString name="Ncommaaccent">
          103 -27 callsubr
          700 11 callsubr
          71 110 69 100 hintmask 00111010
          405 hmoveto
          110 -94 callgsubr
          -79 -445 rlineto
          -5 -30 -6 -15 callgsubr
          -6 55 -9 30 vhcurveto
          -131 445 rlineto
          -110 -75 callsubr
          78 445 rlineto
          5 30 6 55 0 vvcurveto
          4 hlineto
          0 6 -55 9 -30 vhcurveto
          hintmask 11000100
          -50 -510 -105 callgsubr
        </CharString>
        <CharString name="Ntilde">
          26 callgsubr
          70 -26 callgsubr
          65 100 250 100 hintmask 11000110
          405 hmoveto
          110 -94 callgsubr
          -79 -445 rlineto
          -5 -30 -6 -15 callgsubr
          -6 55 -9 30 vhcurveto
          -131 445 rlineto
          -110 -75 callsubr
          78 445 rlineto
          5 30 6 55 0 vvcurveto
          4 hlineto
          0 6 -55 9 -30 vhcurveto
          hintmask 00010000
          249 415 -98 callsubr
        </CharString>
        <CharString name="O">
          73 -60 callsubr
          hstem
          -24 callsubr
          vstem
          191 350 rmoveto
          220 39 82 70 75 hhcurveto
          75 58 -70 32 callgsubr
          -82 -70 -75 hhcurveto
          -75 -58 70 220 39 hvcurveto
          390 hmoveto
          260 46 -82 100 -145 hhcurveto
          -145 -118 -100 -260 -46 hvcurveto
          -260 -46 83 -100 -26 callsubr
          117 100 260 46 hvcurveto
          endchar
        </CharString>
        <CharString name="OE">
          288 -78 callsubr
          hstem
          30 6 callgsubr
          760 hmoveto
          -60 callgsubr
          46 260 -23 callsubr
          12 70 rlineto
          -230 hlineto
          -43 callsubr
          290 hlineto
          12 70 rlineto
          -440 hlineto
          -190 -118 -100 -250 -44 hvcurveto
          -250 -44 83 -100 190 hhcurveto
          12 70 rmoveto
          -120 -58 70 210 37 hvcurveto
          210 37 83 70 120 hhcurveto
          50 hlineto
          -99 -560 rlineto
          endchar
        </CharString>
        <CharString name="Oacute">
          73 -60 callsubr
          40 -32 callgsubr
          -24 callsubr
          hintmask 11011000
          191 350 rmoveto
          220 39 82 70 75 hhcurveto
          75 58 -70 32 callgsubr
          -82 -70 -75 hhcurveto
          -75 -58 70 220 39 hvcurveto
          390 hmoveto
          260 46 -82 100 -145 hhcurveto
          -145 -118 -100 -260 -46 hvcurveto
          -260 -46 83 -100 -26 callsubr
          117 100 260 46 hvcurveto
          hintmask 00100000
          -151 550 -103 callsubr
        </CharString>
        <CharString name="Ocircumflex">
          73 -60 callsubr
          71 -56 callsubr
          hstemhm
          -24 callsubr
          hintmask 11001100
          191 350 rmoveto
          220 39 82 70 75 hhcurveto
          75 58 -70 32 callgsubr
          -82 -70 -75 hhcurveto
          -75 -58 70 220 39 hvcurveto
          390 hmoveto
          260 46 -82 100 -145 hhcurveto
          -145 -118 -100 -260 -46 hvcurveto
          -260 -46 83 -100 -26 callsubr
          117 100 260 46 hvcurveto
          hintmask 00110000
          -185 540 -99 callgsubr
        </CharString>
        <CharString name="Odieresis">
          73 -60 callsubr
          55 110 hstemhm
          30 100 35 -34 callsubr
          -30 100 hintmask 11010010
          191 350 rmoveto
          220 39 82 70 75 hhcurveto
          75 58 -70 32 callgsubr
          -82 -70 -75 hhcurveto
          -75 -58 70 220 39 hvcurveto
          390 hmoveto
          260 46 -82 100 -145 hhcurveto
          -145 -118 -100 -260 -46 hvcurveto
          -260 -46 83 -100 -26 callsubr
          117 100 260 46 hvcurveto
          hintmask 00101100
          -197 470 -107 callsubr
        </CharString>
        <CharString name="Ograve">
          73 -60 callsubr
          40 -32 callgsubr
          -24 callsubr
          hintmask 11011000
          191 350 rmoveto
          220 39 82 70 75 hhcurveto
          75 58 -70 32 callgsubr
          -82 -70 -75 hhcurveto
          -75 -58 70 220 39 hvcurveto
          390 hmoveto
          260 46 -82 100 -145 hhcurveto
          -145 -118 -100 -260 -46 hvcurveto
          -260 -46 83 -100 -26 callsubr
          117 100 260 46 hvcurveto
          hintmask 00100000
          -256 550 -89 callsubr
        </CharString>
        <CharString name="Ohungarumlaut">
          73 -60 callsubr
          40 -32 callgsubr
          -24 callsubr
          hintmask 11011000
          191 350 rmoveto
          220 39 82 70 75 hhcurveto
          75 58 -70 32 callgsubr
          -82 -70 -75 hhcurveto
          -75 -58 70 220 39 hvcurveto
          390 hmoveto
          260 46 -82 100 -145 hhcurveto
          -145 -118 -100 -260 -46 hvcurveto
          -260 -46 83 -100 -26 callsubr
          117 100 260 46 hvcurveto
          hintmask 00100000
          -201 550 rmoveto
          -50 callsubr
          40 hmoveto
          -50 callsubr
          endchar
        </CharString>
        <CharString name="Omacron">
          73 -60 callsubr
          80 70 hstemhm
          -24 callsubr
          hintmask 11011000
          191 350 rmoveto
          220 39 82 70 75 hhcurveto
          75 58 -70 32 callgsubr
          -82 -70 -75 hhcurveto
          -75 -58 70 220 39 hvcurveto
          390 hmoveto
          260 46 -82 100 -145 hhcurveto
          -145 -118 -100 -260 -46 hvcurveto
          -260 -46 83 -100 -26 callsubr
          117 100 260 46 hvcurveto
          hintmask 00100000
          -290 510 -85 callsubr
        </CharString>
        <CharString name="Oslash">
          73 -30 callgsubr
          640 70 -10 -20 hstemhm
          -24 callsubr
          hintmask 01101100
          35 hmoveto
          80 hlineto
          26 35 rlineto
          hintmask 10011100
          -31 32 46 -14 54 hhcurveto
          145 117 100 260 46 hvcurveto
          21 117 -5 86 -26 57 67 90 rcurveline
          -80 hlineto
          -26 -35 rlineto
          hintmask 01101100
          31 -34 -44 14 -54 hhcurveto
          -145 -118 -100 -260 -46 hvcurveto
          -21 -118 5 -85 26 -58 rrcurveto
          90 261 rmoveto
          220 39 82 70 75 hhcurveto
          35 32 -15 -39 19 hvcurveto
          -293 -392 -3 41 3 51 11 64 rlinecurve
          290 hmoveto
          hintmask 10101100
          -29 callgsubr
          -82 -70 -75 hhcurveto
          -35 -31 15 38 -20 hvcurveto
          294 392 2 -40 -3 -51 -11 -64 rlinecurve
          endchar
        </CharString>
        <CharString name="Otilde">
          73 -60 callsubr
          50 -26 callgsubr
          -24 callsubr
          hintmask 11000110
          191 350 rmoveto
          220 39 82 70 75 hhcurveto
          75 58 -70 32 callgsubr
          -82 -70 -75 hhcurveto
          -75 -58 70 220 39 hvcurveto
          390 hmoveto
          260 46 -82 100 -145 hhcurveto
          -145 -118 -100 -260 -46 hvcurveto
          -260 -46 83 -100 -26 callsubr
          117 100 260 46 hvcurveto
          hintmask 00010000
          -72 520 -98 callsubr
        </CharString>
        <CharString name="P">
          38 21 -21 240 70 320 70 hstem
          65 -10 callgsubr
          vstem
          219 310 rmoveto
          57 8 callgsubr
          80 hlineto
          100 41 -50 11 callgsubr
          -110 -19 -59 -50 -100 -38 callsubr
          170 94 80 150 26 hvcurveto
          150 27 -66 80 -170 hhcurveto
          -180 -75 callsubr
          42 240 rlineto
          endchar
        </CharString>
        <CharString name="Q">
          73 -155 70 -70 215 -12 callgsubr
          hstemhm
          30 100 95 100 95 100 cntrmask 00011100
          hintmask 10111100
          581 350 rmoveto
          260 46 -82 100 -145 hhcurveto
          -145 -118 -100 -260 -46 hvcurveto
          -40 -230 61 -105 112 -20 rrcurveto
          -90 -16 49 -60 95 hhcurveto
          40 38 15 0 hvcurveto
          -9 65 rlineto
          -10 hlineto
          0 -16 -10 -20 -40 -21 25 55 10 vhcurveto
          118 20 99 105 40 230 rrcurveto
          -390 hmoveto
          220 39 82 70 75 hhcurveto
          75 58 -70 -29 callgsubr
          hvcurveto
          hintmask 01111100
          -29 callgsubr
          -82 -70 -75 hhcurveto
          -75 -58 70 220 39 hvcurveto
          endchar
        </CharString>
        <CharString name="R">
          8 callsubr
          hstem
          65 100 220 100 vstem
          -98 callgsubr
          endchar
        </CharString>
        <CharString name="Racute">
          8 callsubr
          50 150 17 callgsubr
          220 100 hintmask 11101100
          -98 callgsubr
          hintmask 00010000
          120 570 -103 callsubr
        </CharString>
        <CharString name="Rcaron">
          8 callsubr
          81 33 callgsubr
          220 100 hintmask 11100110
          -98 callgsubr
          hintmask 00011000
          122 430 -102 callgsubr
        </CharString>
        <CharString name="Rcommaaccent">
          48 -27 callsubr
          260 70 300 70 17 callgsubr
          48 110 62 100 hintmask 00111101
          -98 callgsubr
          hintmask 11000010
          -93 -395 -105 callgsubr
        </CharString>
        <CharString name="S">
          -22 -60 callsubr
          hstem
          20 100 225 100 vstem
          -104 callgsubr
          endchar
        </CharString>
        <CharString name="Sacute">
          -22 -60 callsubr
          40 -32 callgsubr
          20 100 225 100 hintmask 11011000
          -104 callgsubr
          hintmask 00100000
          38 190 -103 callsubr
        </CharString>
        <CharString name="Scaron">
          -22 -60 callsubr
          71 -56 callsubr
          hstemhm
          20 100 225 100 hintmask 11001100
          -104 callgsubr
          hintmask 00110000
          40 50 -102 callgsubr
        </CharString>
        <CharString name="Scedilla">
          -22 -28 callgsubr
          -30 -42 callgsubr
          hstemhm
          20 100 55 150 -65 65 20 100 hintmask 0001110010000000
          -104 callgsubr
          hintmask 1010001000000000
          -117 -690 -39 callsubr
          hintmask 1100000100000000
          -63 callsubr
          hintmask 1100001000000000
          -93 callsubr
        </CharString>
        <CharString name="Scommaaccent">
          -22 -250 -36 callgsubr
          65 -42 callgsubr
          hstemhm
          20 100 53 110 62 100 hintmask 00111010
          -104 callgsubr
          hintmask 11000100
          -195 -820 -105 callgsubr
        </CharString>
        <CharString name="T">
          -47 4 callgsubr
          hstem
          165 100 vstem
          -78 callgsubr
          endchar
        </CharString>
        <CharString name="Tcaron">
          -47 4 callgsubr
          81 -56 callsubr
          hstemhm
          165 100 hintmask 11001000
          -78 callgsubr
          hintmask 00110000
          218 760 -102 callgsubr
        </CharString>
        <CharString name="Tcommaaccent">
          -47 -255 -36 callgsubr
          101 -21 630 70 hstemhm
          152 110 -97 100 hintmask 00110100
          -78 callgsubr
          hintmask 11001000
          -26 -115 -105 callgsubr
        </CharString>
        <CharString name="Thorn">
          88 1 -21 80 70 440 70 80 -14 callgsubr
          280 100 vstem
          355 570 rmoveto
          115 62 -75 -145 -26 hvcurveto
          -145 -25 -89 -75 -115 hhcurveto
          -90 hlineto
          78 440 rlineto
          26 150 rmoveto
          -100 hlineto
          -130 -740 -79 callsubr
          14 80 rlineto
          90 hlineto
          185 124 105 185 32 hvcurveto
          185 33 -87 105 -185 hhcurveto
          -90 hlineto
          endchar
        </CharString>
        <CharString name="U">
          93 -44 callgsubr
          hstem
          5 callsubr
          vstem
          -105 callsubr
          endchar
        </CharString>
        <CharString name="Uacute">
          93 -44 callgsubr
          50 -32 callgsubr
          5 callsubr
          hintmask 11011000
          -105 callsubr
          hintmask 00100000
          151 820 -103 callsubr
        </CharString>
        <CharString name="Ucircumflex">
          93 -44 callgsubr
          101 -56 callsubr
          hstemhm
          5 callsubr
          hintmask 11001100
          -105 callsubr
          hintmask 00110000
          111 830 -99 callgsubr
        </CharString>
        <CharString name="Udieresis">
          93 -44 callgsubr
          85 110 hstemhm
          60 100 15 -34 callsubr
          -50 100 hintmask 11010010
          -105 callsubr
          hintmask 00101100
          99 760 -107 callsubr
        </CharString>
        <CharString name="Ugrave">
          93 -44 callgsubr
          50 -32 callgsubr
          5 callsubr
          hintmask 11011000
          -105 callsubr
          hintmask 00100000
          36 820 -89 callsubr
        </CharString>
        <CharString name="Uhungarumlaut">
          93 -44 callgsubr
          60 -32 callgsubr
          5 callsubr
          hintmask 11011000
          -105 callsubr
          hintmask 00100000
          93 830 rmoveto
          -50 callsubr
          40 hmoveto
          -50 callsubr
          endchar
        </CharString>
        <CharString name="Umacron">
          93 -44 callgsubr
          100 70 hstemhm
          5 callsubr
          hintmask 11011000
          -105 callsubr
          hintmask 00100000
          4 790 -85 callsubr
        </CharString>
        <CharString name="Uogonek">
          93 -43 callgsubr
          -44 callgsubr
          hstemhm
          60 100 50 70 130 100 hintmask 00111010
          -105 callsubr
          hintmask 10000100
          2 -160 -52 callgsubr
          hintmask 01000100
          -100 callsubr
          hintmask 10000100
          -45 callgsubr
        </CharString>
        <CharString name="Uring">
          93 -44 callgsubr
          50 50 90 50 hstemhm
          60 100 58 60 80 60 -8 100 hintmask 11001001
          -105 callsubr
          hintmask 00110110
          142 810 -99 callsubr
        </CharString>
        <CharString name="V">
          23 -77 callgsubr
          hstem
          266 105 rmoveto
          0 2 40 -3 30 vhcurveto
          -52 525 -76 callsubr
          72 -67 callgsubr
          130 hlineto
          318 700 -76 callsubr
          -238 -525 rlineto
          -13 -30 -12 -40 0 vvcurveto
          endchar
        </CharString>
        <CharString name="W">
          333 -77 callgsubr
          hstem
          588 6 callsubr
          -120 hlineto
          -201 -490 rlineto
          -13 -30 -13 -50 -87 callgsubr
          6 50 -1 30 vhcurveto
          -29 490 -76 callsubr
          42 -67 callgsubr
          120 hlineto
          201 490 rlineto
          12 30 15 50 0 vvcurveto
          4 hlineto
          0 -3 -50 2 -30 vhcurveto
          29 -490 rlineto
          120 hlineto
          288 700 -76 callsubr
          -201 -490 rlineto
          -13 -30 -12 -50 -87 callgsubr
          5 50 -1 30 vhcurveto
          endchar
        </CharString>
        <CharString name="X">
          -81 callgsubr
        </CharString>
        <CharString name="Y">
          3 -77 callgsubr
          hstem
          190 100 vstem
          329 395 rmoveto
          -15 -25 -13 -35 -87 callgsubr
          -1 35 -7 25 vhcurveto
          -86 305 rlineto
          -105 hlineto
          132 -470 -40 -230 -79 callsubr
          40 230 298 470 rlineto
          -105 hlineto
          endchar
        </CharString>
        <CharString name="Yacute">
          3 -77 callgsubr
          50 -32 callgsubr
          190 100 hintmask 11010000
          329 395 rmoveto
          -15 -25 -13 -35 -87 callgsubr
          -1 35 -7 25 vhcurveto
          -86 305 rlineto
          -105 hlineto
          132 -470 -40 -230 -79 callsubr
          40 230 298 470 rlineto
          -105 hlineto
          hintmask 00100000
          -122 180 -103 callsubr
        </CharString>
        <CharString name="Ydieresis">
          3 -77 callgsubr
          85 110 hstemhm
          130 110 -50 100 15 110 hintmask 11001000
          329 395 rmoveto
          -15 -25 -13 -35 -87 callgsubr
          -1 35 -7 25 vhcurveto
          -86 305 rlineto
          -105 hlineto
          132 -470 -40 -230 -79 callsubr
          40 230 298 470 rlineto
          -105 hlineto
          hintmask 00110100
          -174 120 -107 callsubr
        </CharString>
        <CharString name="Z">
          28 callsubr
          hstem
          -84 callgsubr
          endchar
        </CharString>
        <CharString name="Zacute">
          28 callsubr
          50 -32 callgsubr
          hintmask 11000000
          -84 callgsubr
          hintmask 00100000
          373 900 -103 callsubr
        </CharString>
        <CharString name="Zcaron">
          28 callsubr
          81 -56 callsubr
          hstemhm
          hintmask 11000000
          -84 callgsubr
          hintmask 00110000
          385 760 -102 callgsubr
        </CharString>
        <CharString name="Zdotaccent">
          28 callsubr
          60 120 hstemhm
          192 120 hintmask 11000000
          -84 callgsubr
          hintmask 00110000
          421 820 -95 callsubr
          endchar
        </CharString>
        <CharString name="a">
          -79 callgsubr
          -4 callsubr
          hintmask 10111100
          -101 callgsubr
          hintmask 01111100
          -103 callgsubr
          hintmask 10111100
          -97 callsubr
          endchar
        </CharString>
        <CharString name="aacute">
          -79 callgsubr
          40 150 -4 callsubr
          hintmask 10110110
          -101 callgsubr
          hintmask 01110110
          -103 callgsubr
          hintmask 10110110
          -97 callsubr
          hintmask 00001000
          -4 475 -103 callsubr
        </CharString>
        <CharString name="abreve">
          -79 callgsubr
          40 -25 callsubr
          20 100 -42 -2 callgsubr
          -63 100 hintmask 1011001001000000
          -101 callgsubr
          hintmask 0111001001000000
          -103 callgsubr
          hintmask 1011001001000000
          -97 callsubr
          hintmask 0000100110000000
          -17 385 rmoveto
          hintmask 0000010110000000
          -40 -17 -92 callgsubr
          hintmask 0000100110000000
          -17 callgsubr
        </CharString>
        <CharString name="acircumflex">
          -79 callgsubr
          71 -56 callsubr
          -4 callsubr
          hintmask 10110011
          -101 callgsubr
          hintmask 01110011
          -103 callgsubr
          hintmask 10110011
          -97 callsubr
          hintmask 00001100
          -38 465 -99 callgsubr
        </CharString>
        <CharString name="acute">
          -352 550 150 hstem
          153 700 -103 callsubr
        </CharString>
        <CharString name="adieresis">
          -79 callgsubr
          55 110 hstemhm
          20 100 -35 -34 callsubr
          -55 100 hintmask 1011010010000000
          -101 callgsubr
          hintmask 0111010010000000
          -103 callgsubr
          hintmask 1011010010000000
          -97 callsubr
          hintmask 0000101100000000
          -50 395 -107 callsubr
        </CharString>
        <CharString name="ae">
          258 -10 70 155 80 145 70 hstem
          5 callgsubr
          -5 callgsubr
          vstem
          604 510 rmoveto
          -60 -55 -30 -45 -43 hvcurveto
          45 -17 -45 30 -75 hhcurveto
          -100 -74 -55 0 hvcurveto
          24 -60 rlineto
          10 hlineto
          0 58 45 60 65 33 -40 -80 -14 vhcurveto
          -4 -25 rlineto
          -80 hlineto
          -155 -71 -60 -8 callsubr
          -95 -17 50 -60 105 hhcurveto
          110 81 80 0 hvcurveto
          -54 28 56 -26 65 hhcurveto
          100 74 -37 callgsubr
          -24 60 rlineto
          -10 hlineto
          0 -58 -45 -60 -70 -41 50 105 18 vhcurveto
          280 29 callgsubr
          -115 -38 callsubr
          55 37 -45 -110 -19 hvcurveto
          -200 hlineto
          110 19 53 45 55 hhcurveto
          -255 -315 rmoveto
          -97 callsubr
          endchar
        </CharString>
        <CharString name="afii10017">
          -62 callgsubr
          hstem
          -106 callsubr
          endchar
        </CharString>
        <CharString name="afii10018">
          43 0 70 280 70 210 70 hstem
          65 100 235 100 vstem
          239 420 rmoveto
          37 210 rlineto
          290 hlineto
          12 70 rlineto
          -390 hlineto
          -123 -700 -53 callgsubr
        </CharString>
        <CharString name="afii10019">
          -91 callgsubr
        </CharString>
        <CharString name="afii10020">
          -37 4 callgsubr
          hstem
          65 100 vstem
          165 hmoveto
          4 callsubr
          290 hlineto
          12 70 rlineto
          -390 hlineto
          -95 callgsubr
          endchar
        </CharString>
        <CharString name="afii10021">
          93 -150 220 -70 70 560 70 hstemhm
          90 110 -98 98 190 100 hintmask 10101100
          238 6 callsubr
          hintmask 10110100
          -104 -450 rlineto
          -29 -125 -58 -55 0 vvcurveto
          -50 hlineto
          -38 -220 rlineto
          84 hlineto
          hintmask 01101100
          42 150 rlineto
          375 hlineto
          hintmask 10101100
          -40 callgsubr
          -466 -630 rmoveto
          0 58 55 29 125 vhcurveto
          87 380 rlineto
          180 hlineto
          -99 -560 rlineto
          endchar
        </CharString>
        <CharString name="afii10022">
          -78 callsubr
          hstem
          65 100 vstem
          -104 callsubr
          endchar
        </CharString>
        <CharString name="afii10023">
          -78 callsubr
          65 110 17 callgsubr
          -50 110 75 110 hintmask 11111010
          -104 callsubr
          hintmask 11110110
          304 820 rmoveto
          -21 callgsubr
          185 hmoveto
          -21 callgsubr
          endchar
        </CharString>
        <CharString name="afii10024">
          333 24 callsubr
          hstemhm
          355 100 hintmask 10101100
          578 34 callsubr
          -54 -305 rlineto
          -45 hlineto
          -55 -27 30 45 hvcurveto
          140 vlineto
          hintmask 10110100
          60 -32 40 -65 vhcurveto
          hintmask 10101100
          -40 -22 17 callsubr
          20 13 -15 -30 -1 vhcurveto
          1 -140 rlineto
          -80 84 -10 0 vhcurveto
          0 -89 -15 -34 -85 vhcurveto
          -63 -160 rlineto
          -30 -12 -16 -15 -20 -15 callsubr
          -5 hlineto
          hintmask 01110100
          -21 -65 rlineto
          hintmask 10110100
          0 18 -10 40 65 44 40 60 23 vhcurveto
          64 160 rlineto
          45 18 35 30 50 hhcurveto
          55 hlineto
          hintmask 01110100
          -57 -325 -79 callsubr
          57 325 rlineto
          55 -64 callsubr
          -62 callsubr
          -45 hlineto
          endchar
        </CharString>
        <CharString name="afii10025">
          -7 -10 70 270 70 240 70 hstemhm
          330 100 -85 100 hintmask 11110000
          302 640 rmoveto
          90 42 -50 -70 -13 hvcurveto
          -70 -12 -59 -50 -80 hhcurveto
          -90 -58 callgsubr
          90 hlineto
          hintmask 11101000
          95 41 -50 -85 -15 hvcurveto
          -85 -15 -59 -50 -115 hhcurveto
          -90 -42 -96 callsubr
          56 -55 130 175 94 80 7 callgsubr
          vhcurveto
          28 160 -135 25 0 vvcurveto
          hintmask 11110000
          0 130 30 23 130 vhcurveto
          100 18 -66 80 -150 hhcurveto
          -120 -75 -55 0 hvcurveto
          24 -60 rlineto
          10 hlineto
          0 58 45 80 vhcurveto
          endchar
        </CharString>
        <CharString name="afii10026">
          26 callgsubr
          hstem
          65 100 250 100 vstem
          -70 callgsubr
          endchar
        </CharString>
        <CharString name="afii10027">
          26 callgsubr
          70 -25 callsubr
          65 100 -25 -2 callgsubr
          -25 100 hintmask 11101001
          -70 callgsubr
          267 810 rmoveto
          hintmask 11010110
          -40 -16 -92 callgsubr
          hintmask 11101010
          -50 -9 -24 -20 -40 hhcurveto
          endchar
        </CharString>
        <CharString name="afii10028">
          58 24 callsubr
          hstemhm
          65 100 hintmask 10110100
          384 365 rmoveto
          -62 callsubr
          -60 hlineto
          hintmask 01101100
          54 305 -75 callgsubr
          57 325 rlineto
          70 -64 callsubr
          endchar
        </CharString>
        <CharString name="afii10029">
          83 -30 callgsubr
          630 70 hstemhm
          75 100 -85 97 208 100 hintmask 10101100
          35 callgsubr
          hintmask 01101100
          -16 -65 rlineto
          hintmask 10101100
          0 23 -10 30 vhcurveto
          hintmask 01110100
          22 callgsubr
          195 hlineto
          -111 -630 rlineto
          -57 callsubr
          -390 hlineto
          -125 -540 rlineto
          hintmask 10101100
          -75 -18 -30 -25 -25 hhcurveto
          endchar
        </CharString>
        <CharString name="afii10030">
          313 21 -21 505 -20 215 -14 callgsubr
          460 100 vstem
          288 700 rmoveto
          -100 -75 callsubr
          74 420 rlineto
          5 30 6 55 0 vvcurveto
          4 hlineto
          0 5 -55 10 -30 vhcurveto
          98 -295 -79 callsubr
          202 295 rlineto
          20 30 25 55 0 vvcurveto
          4 hlineto
          0 -14 -55 -5 -30 vhcurveto
          -74 -420 rlineto
          100 -94 callgsubr
          -285 -425 rlineto
          -13 -16 -14 -34 -87 callgsubr
          -2 34 -7 16 vhcurveto
          endchar
        </CharString>
        <CharString name="afii10031">
          -68 callsubr
        </CharString>
        <CharString name="afii10032">
          73 -60 callsubr
          hstem
          -24 callsubr
          vstem
          191 350 rmoveto
          220 39 82 70 75 hhcurveto
          75 58 -70 32 callgsubr
          -82 -70 -75 hhcurveto
          -75 -58 70 220 39 hvcurveto
          390 hmoveto
          260 46 -82 100 -145 hhcurveto
          -145 -118 -100 -260 -46 hvcurveto
          -260 -46 83 -100 -26 callsubr
          117 100 260 46 hvcurveto
          endchar
        </CharString>
        <CharString name="afii10033">
          103 4 callgsubr
          hstem
          65 100 250 100 vstem
          188 6 callsubr
          -123 -45 callsubr
          4 callsubr
          250 hlineto
          -111 -630 rlineto
          -57 callsubr
          endchar
        </CharString>
        <CharString name="afii10034">
          38 21 -21 240 70 320 70 hstem
          65 -10 callgsubr
          vstem
          219 310 rmoveto
          57 8 callgsubr
          80 hlineto
          100 41 -50 11 callgsubr
          -110 -19 -59 -50 -100 -38 callsubr
          170 94 80 150 26 hvcurveto
          150 27 -66 80 -170 hhcurveto
          -180 -75 callsubr
          42 240 rlineto
          endchar
        </CharString>
        <CharString name="afii10035">
          -12 -60 callsubr
          hstem
          30 100 vstem
          -102 callsubr
          endchar
        </CharString>
        <CharString name="afii10036">
          -47 4 callgsubr
          hstem
          165 100 vstem
          -78 callgsubr
          endchar
        </CharString>
        <CharString name="afii10037">
          9 -15 70 645 -20 hstem
          213 6 callsubr
          -105 hlineto
          115 -515 rlineto
          45 hlineto
          -30 -60 rlineto
          -40 -21 -37 -30 -40 hhcurveto
          -35 -20 25 -84 callsubr
          -37 -65 rlineto
          0 35 -30 65 85 77 65 75 38 vhcurveto
          286 575 -76 callsubr
          -184 -365 rlineto
          -13 -26 -20 -49 -87 callgsubr
          -3 50 -5 25 vhcurveto
          endchar
        </CharString>
        <CharString name="afii10038">
          243 -9 -21 760 -20 hstem
          20 100 190 100 190 100 cntrmask 00111000
          514 590 rmoveto
          113 -10 62 -75 -28 -155 -27 -155 -88 -75 -117 -10 rrcurveto
          -3 550 rmoveto
          -187 -10 -123 -105 -35 -195 -34 -195 86 -105 184 -10 -13 -70 rcurveline
          100 hlineto
          13 70 186 10 124 105 34 195 rlinecurve
          35 195 -87 105 -183 10 12 70 rcurveline
          -100 hlineto
          -109 -620 rmoveto
          -113 10 -62 75 27 155 28 155 88 75 117 10 rrcurveto
          endchar
        </CharString>
        <CharString name="afii10039">
          -81 callgsubr
        </CharString>
        <CharString name="afii10040">
          108 -16 callgsubr
          240 100 hintmask 01111000
          475 hmoveto
          hintmask 10111000
          -40 callgsubr
          -100 hlineto
          -111 -630 rlineto
          -240 hlineto
          4 callsubr
          -100 hlineto
          hintmask 01111000
          -95 callgsubr
          endchar
        </CharString>
        <CharString name="afii10041">
          73 21 -21 260 70 370 -20 hstem
          35 100 250 100 vstem
          445 345 rmoveto
          0 -52 -15 -65 -85 -41 50 75 13 vhcurveto
          43 245 -76 callsubr
          -43 -245 rlineto
          -115 -21 66 -80 130 hhcurveto
          80 63 15 0 hvcurveto
          -48 -275 rlineto
          100 -94 callgsubr
          endchar
        </CharString>
        <CharString name="afii10042">
          393 0 70 630 -14 callgsubr
          220 100 220 100 cntrmask 00111000
          928 700 rmoveto
          -41 callsubr
          -95 callgsubr
          740 hlineto
          endchar
        </CharString>
        <CharString name="afii10043">
          408 -16 callgsubr
          220 100 220 100 cntrmask 00011100
          hintmask 01111100
          775 hmoveto
          hintmask 10111100
          -40 callgsubr
          -41 callsubr
          hintmask 01111100
          -95 callgsubr
          endchar
        </CharString>
        <CharString name="afii10044">
          93 0 70 300 70 190 70 hstemhm
          -15 240 -100 100 235 100 hintmask 11110100
          96 630 rmoveto
          hintmask 11101100
          140 hlineto
          -111 -630 rlineto
          190 hlineto
          165 94 80 140 24 -3 callgsubr
          -165 hhcurveto
          -90 hlineto
          -42 callsubr
          hintmask 11110100
          -240 hlineto
          272 -330 rmoveto
          95 41 -50 -100 -18 hvcurveto
          18 callgsubr
        </CharString>
        <CharString name="afii10045">
          273 0 70 300 70 260 -14 callgsubr
          225 100 95 100 vstem
          585 hmoveto
          100 -94 callgsubr
          -466 -260 rmoveto
          -42 callsubr
          -100 hlineto
          -95 callgsubr
          180 -61 callgsubr
          -100 -17 -59 -50 -95 hhcurveto
          -80 16 callgsubr
        </CharString>
        <CharString name="afii10046">
          33 0 70 300 70 260 -14 callgsubr
          235 100 vstem
          242 440 rmoveto
          -42 callsubr
          -100 hlineto
          -95 callgsubr
          190 -61 callgsubr
          18 callgsubr
        </CharString>
        <CharString name="afii10047">
          -12 -10 -46 callgsubr
          250 70 hstem
          334 101 vstem
          496 350 rmoveto
          260 46 -82 100 -150 hhcurveto
          -110 -75 -55 0 hvcurveto
          24 -60 rlineto
          10 hlineto
          0 58 45 70 85 55 -60 -190 -25 vhcurveto
          -234 -58 callgsubr
          235 hlineto
          -195 -39 -82 -65 -95 hhcurveto
          -70 -42 -96 callsubr
          56 -55 110 160 117 100 260 46 vhcurveto
          endchar
        </CharString>
        <CharString name="afii10048">
          283 -30 callgsubr
          320 70 250 70 -10 11 callsubr
          95 100 270 100 hintmask 10110111
          620 710 rmoveto
          -130 -111 -90 -230 -51 hvcurveto
          -95 hlineto
          hintmask 01101111
          55 310 -75 callgsubr
          -30 callsubr
          95 hlineto
          hintmask 10110111
          -240 -32 79 -90 130 -4 callgsubr
          -115 -650 rmoveto
          -65 -58 70 220 39 hvcurveto
          220 39 82 70 65 hhcurveto
          65 58 -70 32 callgsubr
          -82 -70 -65 hhcurveto
          endchar
        </CharString>
        <CharString name="afii10049">
          43 0 60 -49 -21 280 70 290 70 hstemhm
          30 100 225 100 hintmask 10111100
          402 270 rmoveto
          -47 -270 rlineto
          -57 callsubr
          -175 hlineto
          -170 -94 -80 -135 -24 hvcurveto
          -18 -105 61 -75 74 -10 rrcurveto
          0 -63 -15 -32 -70 vhcurveto
          -49 -105 rlineto
          -30 -13 -20 -15 -15 -15 callsubr
          -5 hlineto
          -21 -65 rlineto
          hintmask 01111100
          0 18 -10 40 60 42 35 65 30 vhcurveto
          49 105 rlineto
          45 21 37 30 45 hhcurveto
          2 70 rmoveto
          -100 -41 50 95 17 hvcurveto
          95 17 59 50 100 hhcurveto
          75 hlineto
          -52 -290 rlineto
          endchar
        </CharString>
        <CharString name="afii10050">
          -37 4 callgsubr
          -70 170 17 callgsubr
          hintmask 10110000
          516 800 rmoveto
          hintmask 11010000
          -28 -100 rlineto
          -300 -75 callsubr
          4 callsubr
          290 hlineto
          hintmask 10110000
          -9 callsubr
          rlineto
          endchar
        </CharString>
        <CharString name="afii10051">
          113 -30 70 -19 -21 380 70 180 70 hstemhm
          115 100 250 100 hintmask 01111100
          609 255 rmoveto
          -50 callgsubr
          64 365 rlineto
          35 callsubr
          -22 -125 rlineto
          hintmask 10111100
          -60 -10 -35 -30 -45 hhcurveto
          -20 -24 10 -84 callsubr
          -21 -65 rlineto
          0 37 -15 45 90 33 callsubr
          endchar
        </CharString>
        <CharString name="afii10052">
          -37 4 callgsubr
          50 150 hstem
          65 100 vstem
          165 hmoveto
          4 callsubr
          290 hlineto
          12 70 rlineto
          -390 hlineto
          -95 callgsubr
          363 900 18 callsubr
        </CharString>
        <CharString name="afii10053">
          -12 -10 -46 callgsubr
          250 70 hstem
          30 100 vstem
          91 350 rmoveto
          -260 -46 83 -100 160 hhcurveto
          110 74 -37 callgsubr
          -24 60 rlineto
          -10 hlineto
          0 -58 -45 -70 -95 -58 65 195 29 vhcurveto
          235 hlineto
          12 70 rlineto
          -234 hlineto
          190 43 75 60 85 hhcurveto
          70 -96 callgsubr
          -110 -150 -118 -100 -260 -46 vhcurveto
          endchar
        </CharString>
        <CharString name="afii10054">
          -22 -60 callsubr
          hstem
          20 100 225 100 vstem
          -104 callgsubr
          endchar
        </CharString>
        <CharString name="afii10055">
          -20 callgsubr
        </CharString>
        <CharString name="afii10056">
          -277 -77 callgsubr
          100 120 hstemhm
          -50 120 -15 100 -25 120 hintmask 11101000
          -11 callgsubr
          hintmask 11110100
          40 140 rmoveto
          -21 callsubr
          180 hmoveto
          -21 callsubr
          endchar
        </CharString>
        <CharString name="afii10057">
          -102 -44 callgsubr
          hstem
          215 100 vstem
          110 60 rmoveto
          -45 -33 40 -84 callsubr
          -41 -65 rlineto
          0 47 -45 80 135 82 70 130 23 vhcurveto
          90 510 -76 callsubr
          -90 -510 rlineto
          -90 -16 -47 -40 -75 hhcurveto
          endchar
        </CharString>
        <CharString name="afii10058">
          354 -10 80 -49 -21 370 70 190 70 hstemhm
          -13 188 -100 100 -85 97 198 101 235 100 hintmask 1011001110000000
          563 440 rmoveto
          -42 callsubr
          -381 hlineto
          hintmask 0111010110000000
          -125 -540 rlineto
          -75 -18 -30 -25 -25 -15 callsubr
          -10 hlineto
          -16 -65 rlineto
          hintmask 1011001110000000
          0 23 -10 30 vhcurveto
          hintmask 0111100110000000
          22 callgsubr
          185 hlineto
          -111 -630 rlineto
          191 -61 callgsubr
          hintmask 1011001110000000
          18 callgsubr
        </CharString>
        <CharString name="afii10059">
          373 0 70 280 70 280 -14 callgsubr
          240 100 235 100 vstem
          579 420 rmoveto
          49 280 -76 callsubr
          -49 -280 rlineto
          -240 hlineto
          49 280 -75 callgsubr
          61 350 rlineto
          240 hlineto
          -61 -350 -53 callgsubr
        </CharString>
        <CharString name="afii10060">
          123 21 -21 380 70 180 70 hstem
          115 100 250 100 vstem
          279 365 rmoveto
          35 callsubr
          -44 -255 -79 callsubr
          44 255 rlineto
          -50 callgsubr
          endchar
        </CharString>
        <CharString name="afii10061">
          58 24 callsubr
          60 150 17 callgsubr
          hintmask 10110110
          426 890 rmoveto
          -71 -150 -71 callgsubr
          116 150 rlineto
          -147 -525 rmoveto
          0 83 10 28 80 vhcurveto
          49 140 rlineto
          30 11 17 15 20 hhcurveto
          10 9 -5 -68 callgsubr
          hintmask 10101110
          22 65 rlineto
          hintmask 10110110
          0 -18 10 -40 -65 -46 -40 -60 -22 vhcurveto
          -50 -140 rlineto
          -45 -16 -37 -30 -55 hhcurveto
          -60 hlineto
          hintmask 01101110
          54 305 -75 callgsubr
          57 325 rlineto
          70 hlineto
          50 25 -30 -45 2 hvcurveto
          6 -160 rlineto
          hintmask 10110110
          -60 3 30 -40 65 hhcurveto
          hintmask 01110110
          40 22 10 0 hvcurveto
          1 65 rlineto
          -5 hlineto
          hintmask 10110110
          0 -11 -5 -10 -20 -10 15 30 -2 vhcurveto
          -7 160 rlineto
          -4 85 -78 15 0 vvcurveto
          endchar
        </CharString>
        <CharString name="afii10062">
          9 -15 70 645 -20 60 -25 callsubr
          96 -2 callgsubr
          hintmask 11101100
          387 800 rmoveto
          hintmask 11011100
          -40 -17 -92 callgsubr
          hintmask 11101100
          -50 -9 -23 -20 -40 hhcurveto
          -174 -100 rmoveto
          -105 hlineto
          115 -515 rlineto
          45 hlineto
          -30 -60 rlineto
          -40 -21 -37 -30 -40 hhcurveto
          -35 -20 25 -84 callsubr
          -37 -65 rlineto
          0 35 -30 65 85 77 65 75 38 vhcurveto
          286 575 -76 callsubr
          -184 -365 rlineto
          -13 -26 -20 -49 -87 callgsubr
          -3 50 -5 25 vhcurveto
          endchar
        </CharString>
        <CharString name="afii10065">
          -79 callgsubr
          -4 callsubr
          hintmask 10111100
          -101 callgsubr
          hintmask 01111100
          -103 callgsubr
          hintmask 10111100
          -97 callsubr
          endchar
        </CharString>
        <CharString name="afii10066">
          -2 -10 70 335 75 245 -20 hstem
          30 100 220 100 vstem
          556 630 rmoveto
          85 vlineto
          -145 -25 -185 -32 -94 -78 -45 -255 rlinecurve
          -17 -95 rlineto
          -155 -27 70 -85 125 hhcurveto
          125 100 85 155 27 hvcurveto
          155 27 -70 85 -100 hhcurveto
          -65 -55 -30 -50 -39 hvcurveto
          24 135 65 57 134 23 rrcurveto
          -102 -210 rmoveto
          60 41 -50 -115 -20 hvcurveto
          -120 -21 -59 -50 -60 hhcurveto
          -60 -41 50 120 21 hvcurveto
          7 callgsubr
          59 50 60 hhcurveto
          endchar
        </CharString>
        <CharString name="afii10067">
          0 70 150 70 140 70 hstemhm
          50 100 170 100 -80 80 -80 100 hintmask 11111000
          370 260 rmoveto
          0 99 20 16 90 vhcurveto
          70 12 -49 60 -1 callsubr
          -190 hlineto
          -23 callgsubr
          190 hlineto
          hintmask 11110010
          140 70 60 75 13 hvcurveto
          20 110 -113 15 0 vvcurveto
          -55 170 rmoveto
          hintmask 11111000
          50 25 -30 -40 -7 hvcurveto
          -40 -7 -35 -30 -50 hhcurveto
          -90 hlineto
          24 140 rlineto
          53 -210 rmoveto
          hintmask 11110100
          70 25 -30 -45 -8 hvcurveto
          -45 -8 -35 -30 -70 hhcurveto
          -90 hlineto
          26 150 rlineto
          endchar
        </CharString>
        <CharString name="afii10068">
          -112 -2 callsubr
          70 -22 callgsubr
          endchar
        </CharString>
        <CharString name="afii10069">
          33 -140 210 -70 70 360 70 hstemhm
          92 98 145 100 hintmask 10111000
          188 500 rmoveto
          -65 -280 rlineto
          -21 -95 -60 -55 0 vvcurveto
          -50 hlineto
          -36 -210 rlineto
          84 hlineto
          hintmask 01111000
          40 140 rlineto
          325 hlineto
          hintmask 10111000
          -37 callsubr
          -381 -430 rmoveto
          0 60 55 21 95 vhcurveto
          47 210 rlineto
          140 hlineto
          -63 -360 rlineto
          endchar
        </CharString>
        <CharString name="afii10070">
          -22 -72 callgsubr
          hstem
          25 100 210 100 cntrmask 11100000
          -107 callgsubr
          endchar
        </CharString>
        <CharString name="afii10071">
          -22 -72 callgsubr
          55 110 hstemhm
          25 100 -34 110 64 110 -40 100 hintmask 11111010
          319 510 rmoveto
          -120 -80 callsubr
          135 hhcurveto
          100 74 -37 callgsubr
          -24 60 rlineto
          -10 hlineto
          0 -58 -45 -60 -8 callgsubr
          105 18 vhcurveto
          290 hlineto
          hintmask 11111001
          24 20 3 15 rlineto
          175 30 -70 85 -120 -38 callsubr
          60 37 -45 -110 -19 hvcurveto
          -210 hlineto
          110 19 53 45 60 hhcurveto
          hintmask 11110110
          3 180 rmoveto
          32 5 -18 23 -32 hhcurveto
          -32 -28 -23 -32 -5 hvcurveto
          -32 -6 19 -23 32 hhcurveto
          32 27 23 32 6 hvcurveto
          174 hmoveto
          32 5 -18 23 -32 hhcurveto
          -32 -28 -23 -32 -5 hvcurveto
          -32 -6 19 -23 32 hhcurveto
          32 27 23 32 6 hvcurveto
          endchar
        </CharString>
        <CharString name="afii10072">
          213 -40 callsubr
          hstemhm
          295 100 hintmask 10110100
          647 325 rmoveto
          -53 callsubr
          -35 hlineto
          hintmask 10101100
          37 210 -76 callsubr
          -37 -210 rlineto
          -35 hlineto
          -38 -17 20 30 -2 hvcurveto
          -5 85 rlineto
          hintmask 10110100
          55 -3 -25 30 -57 hhcurveto
          hintmask 10101100
          -35 -26 17 callsubr
          15 8 -10 -20 2 vhcurveto
          5 -85 rlineto
          -57 3 59 -8 6 hhcurveto
          -9 -2 -68 -13 -26 -60 -42 -95 rcurveline
          -20 -8 -12 -10 -15 -15 callsubr
          -5 hlineto
          hintmask 01110100
          -21 -65 rlineto
          hintmask 10110100
          0 23 -10 35 55 36 31 54 24 vhcurveto
          41 95 rlineto
          30 14 25 20 35 hhcurveto
          45 hlineto
          hintmask 01110100
          -38 -220 -79 callsubr
          38 220 rlineto
          45 -55 callgsubr
          -5 61 -66 13 -6 1 rlinecurve
          8 1 61 8 23 56 rrcurveto
          endchar
        </CharString>
        <CharString name="afii10073">
          -77 9 callgsubr
          270 110 vstem
          264 510 rmoveto
          -110 -69 -55 0 hvcurveto
          24 -60 rlineto
          10 hlineto
          0 53 45 70 75 25 -30 -45 -8 vhcurveto
          -45 -8 -35 -30 -60 hhcurveto
          -85 -14 callsubr
          85 hlineto
          70 25 -30 -50 -9 hvcurveto
          -50 -9 -35 -30 -85 hhcurveto
          -80 -42 -96 callsubr
          56 -55 120 145 70 60 80 14 vhcurveto
          21 115 -113 15 0 vvcurveto
          0 110 25 16 90 vhcurveto
          75 13 -50 60 -135 hhcurveto
          endchar
        </CharString>
        <CharString name="afii10074">
          23 -56 callgsubr
          -25 callgsubr
          vstem
          -70 callsubr
          endchar
        </CharString>
        <CharString name="afii10075">
          23 -48 callgsubr
          70 -25 callsubr
          50 100 -50 -2 callgsubr
          -50 100 hintmask 11101001
          -70 callsubr
          207 610 rmoveto
          hintmask 11010110
          -40 -16 20 50 8 hvcurveto
          -90 hlineto
          -80 -14 41 -50 100 hhcurveto
          100 59 50 80 14 hvcurveto
          -90 hlineto
          hintmask 11101010
          -50 -8 -24 -20 -40 hhcurveto
          endchar
        </CharString>
        <CharString name="afii10076">
          -40 callsubr
          hstemhm
          50 100 hintmask 10110100
          325 260 rmoveto
          0 67 5 25 60 vhcurveto
          -53 callsubr
          -50 hlineto
          hintmask 01101100
          37 210 -54 callgsubr
          38 220 rlineto
          60 -55 callgsubr
          rlineto
          -5 65 -72 10 0 vvcurveto
          endchar
        </CharString>
        <CharString name="afii10077">
          13 -30 callgsubr
          430 70 hstemhm
          -13 183 170 100 hintmask 10111000
          35 callgsubr
          hintmask 01111000
          -16 -65 rlineto
          hintmask 10111000
          14 callsubr
          155 hlineto
          hintmask 01111000
          -75 -430 -79 callsubr
          -66 callsubr
          -350 hlineto
          -80 -340 rlineto
          hintmask 10111000
          -80 -19 -24 -20 -25 hhcurveto
          endchar
        </CharString>
        <CharString name="afii10078">
          173 -56 callgsubr
          50 100 350 100 vstem
          389 85 rmoveto
          127 180 rlineto
          22 31 21 39 0 vvcurveto
          4 hlineto
          0 -11 -40 -6 -30 vhcurveto
          -46 -265 -79 callsubr
          -66 callsubr
          -105 hlineto
          -200 -280 rlineto
          -13 -16 -12 -24 -87 callgsubr
          -4 24 -7 16 vhcurveto
          -100 280 rlineto
          -105 -74 callgsubr
          46 265 rlineto
          6 30 3 40 0 vvcurveto
          4 hlineto
          0 7 -39 10 -31 vhcurveto
          63 -6 callgsubr
          endchar
        </CharString>
        <CharString name="afii10079">
          23 21 -21 220 70 210 -20 22 callsubr
          -100 hlineto
          -37 -210 rlineto
          -200 hlineto
          37 210 -54 callgsubr
          38 220 rlineto
          200 hlineto
          -38 -220 -79 callsubr
          endchar
        </CharString>
        <CharString name="afii10080">
          3 26 callsubr
          -24 callgsubr
          vstem
          -106 callgsubr
          endchar
        </CharString>
        <CharString name="afii10081">
          23 -2 callsubr
          70 22 callsubr
          -400 -74 callgsubr
          75 430 rlineto
          200 hlineto
          -75 -430 -79 callsubr
          endchar
        </CharString>
        <CharString name="afii10082">
          19 callgsubr
          50 100 210 100 hintmask 11101100
          216 375 rmoveto
          0 55 60 60 55 41 -50 -135 -23 vhcurveto
          30 callgsubr
          -55 -36 20 0 hvcurveto
          -44 -250 rmoveto
          33 190 rlineto
          0 45 -30 60 115 -49 callgsubr
          -95 hhcurveto
          -100 -57 -70 0 hvcurveto
          -5 hlineto
          hintmask 11011100
          1 60 rlineto
          -70 hlineto
          -124 -67 callgsubr
          70 hlineto
          endchar
        </CharString>
        <CharString name="afii10083">
          -72 26 callsubr
          25 100 vstem
          322 440 rmoveto
          60 -100 callgsubr
          -56 55 -100 -125 -88 callgsubr
          vhcurveto
          -88 callsubr
          135 hhcurveto
          100 74 -37 callgsubr
          -24 60 rlineto
          -10 hlineto
          0 -58 -45 -60 -80 -41 50 -38 callgsubr
          59 50 70 hhcurveto
          endchar
        </CharString>
        <CharString name="afii10084">
          -107 -2 callsubr
          70 hstem
          135 100 vstem
          473 500 rmoveto
          -400 -14 callsubr
          150 hlineto
          -75 -430 -79 callsubr
          75 430 rlineto
          150 hlineto
          endchar
        </CharString>
        <CharString name="afii10085">
          -52 -210 70 161 -3 callsubr
          hstem
          75 -140 rmoveto
          -30 -21 25 -84 callsubr
          -36 -65 rlineto
          0 34 -30 60 85 69 60 80 36 vhcurveto
          261 570 -76 callsubr
          -150 -330 rlineto
          -13 -30 -20 -50 -87 callgsubr
          -2 50 -5 30 vhcurveto
          -51 3 callgsubr
          77 -12 callsubr
          40 hlineto
          -33 -70 rlineto
          -40 -18 -34 -30 -35 hhcurveto
          endchar
        </CharString>
        <CharString name="afii10086">
          153 2 callsubr
          -48 callsubr
          190 -20 hstem
          20 100 145 100 145 100 cntrmask 00001110
          442 440 rmoveto
          89 -5 46 -55 -23 -130 -23 -130 -65 -55 -91 -5 rrcurveto
          -21 450 rmoveto
          -155 -5 -106 -90 -29 -165 -30 -165 75 -90 154 -5 -34 -190 rcurveline
          100 hlineto
          34 190 156 5 105 90 30 165 rlinecurve
          29 165 -74 90 -155 5 34 190 rcurveline
          -70 hlineto
          -35 -30 rlineto
          -108 -610 rmoveto
          -89 5 -45 55 23 130 23 130 64 55 91 5 rrcurveto
          endchar
        </CharString>
        <CharString name="afii10087">
          -81 callsubr
        </CharString>
        <CharString name="afii10088">
          38 -16 callsubr
          190 100 hintmask 01111000
          410 hmoveto
          hintmask 10111000
          -37 callsubr
          -100 hlineto
          -76 -430 rlineto
          -190 hlineto
          76 430 -76 callsubr
          hintmask 01111000
          -23 callgsubr
          endchar
        </CharString>
        <CharString name="afii10089">
          -7 0 235 -70 70 265 -20 hstemhm
          30 100 190 100 hintmask 01111000
          234 170 rmoveto
          65 53 15 0 hvcurveto
          hintmask 10111000
          -32 -185 -79 callsubr
          -52 callsubr
          -44 -245 rlineto
          0 -42 -15 -50 -60 -33 40 55 10 vhcurveto
          29 165 -76 callsubr
          -29 -165 rlineto
          hintmask 01111000
          -95 -17 57 -70 105 hhcurveto
          endchar
        </CharString>
        <CharString name="afii10090">
          263 0 70 430 -20 hstem
          50 100 170 100 170 100 cntrmask 00111000
          778 500 rmoveto
          -32 callsubr
          -23 callgsubr
          640 hlineto
          endchar
        </CharString>
        <CharString name="afii10091">
          288 -16 callsubr
          170 100 170 100 cntrmask 00011100
          hintmask 01111100
          660 hmoveto
          hintmask 10111100
          -37 callsubr
          -32 callsubr
          hintmask 01111100
          -23 callgsubr
          endchar
        </CharString>
        <CharString name="afii10092">
          28 0 70 190 70 100 70 hstemhm
          -15 230 190 100 vstemhm
          273 330 rmoveto
          -9 callsubr
          rlineto
          -230 -14 callsubr
          hintmask 11111000
          130 hlineto
          -75 -430 rlineto
          190 -73 callsubr
          -65 -12 -35 -30 -70 hhcurveto
          -90 15 callsubr
        </CharString>
        <CharString name="afii10093">
          183 0 70 190 70 170 -20 hstem
          50 100 180 100 80 100 vstem
          698 500 rmoveto
          -100 -74 callgsubr
          -402 330 rmoveto
          -9 callsubr
          -76 callsubr
          -23 callgsubr
          180 -73 callsubr
          -65 -12 -35 -30 -70 hhcurveto
          -80 15 callsubr
        </CharString>
        <CharString name="afii10094">
          -37 0 70 190 70 170 -20 hstem
          50 100 190 100 vstem
          208 330 rmoveto
          -9 callsubr
          -76 callsubr
          -23 callgsubr
          190 -73 callsubr
          -65 -12 -35 -30 -70 hhcurveto
          -90 15 callsubr
        </CharString>
        <CharString name="afii10095">
          -72 9 callgsubr
          279 101 vstem
          237 440 rmoveto
          64 38 -40 -110 -9 hvcurveto
          -180 -14 callsubr
          180 hlineto
          -115 -25 -58 -45 -74 -17 callsubr
          56 -55 100 135 -49 callgsubr
          -125 hhcurveto
          -100 -74 -55 0 hvcurveto
          24 -60 rlineto
          10 hlineto
          0 58 45 60 vhcurveto
          endchar
        </CharString>
        <CharString name="afii10096">
          188 -40 callsubr
          hstemhm
          50 100 80 100 210 100 hintmask 10110111
          684 7 callsubr
          175 30 -70 85 -1 callsubr
          -110 -97 -70 -150 -36 hvcurveto
          -80 hlineto
          hintmask 01101111
          37 210 -54 callgsubr
          38 220 rlineto
          80 hlineto
          hintmask 10110111
          -155 -17 67 -75 115 hhcurveto
          120 100 85 175 31 hvcurveto
          -100 hmoveto
          -140 -25 -59 -50 -55 hhcurveto
          -55 -33 callsubr
          hvcurveto
          -51 callgsubr
          55 hhcurveto
          55 41 -50 -140 -24 hvcurveto
          endchar
        </CharString>
        <CharString name="afii10097">
          0 60 -49 -21 200 70 170 70 hstemhm
          25 100 185 100 hintmask 10111100
          343 190 rmoveto
          -33 -190 -79 callsubr
          -66 callsubr
          -185 hlineto
          -140 -71 -60 -95 -17 hvcurveto
          -20 -115 117 -15 0 vvcurveto
          0 -48 -15 -22 -45 vhcurveto
          -32 -65 rlineto
          -20 -9 -12 -10 -14 -15 callsubr
          -5 hlineto
          -21 -65 rlineto
          hintmask 01111100
          0 23 -10 35 55 33 30 55 27 vhcurveto
          31 65 rlineto
          30 14 25 20 30 hhcurveto
          -3 70 rmoveto
          -70 -24 30 55 9 hvcurveto
          55 10 35 30 70 hhcurveto
          85 hlineto
          16 callsubr
          rlineto
          endchar
        </CharString>
        <CharString name="afii10098">
          -112 -2 callsubr
          70 -70 160 hstemhm
          50 100 hintmask 11010000
          50 hmoveto
          100 hlineto
          75 430 -23 callsubr
          hintmask 10110000
          29 160 rlineto
          -80 hlineto
          hintmask 11010000
          -26 -90 rlineto
          -240 hlineto
          endchar
        </CharString>
        <CharString name="afii10099">
          28 -140 70 91 -21 375 75 70 70 110 -14 callgsubr
          -5 callgsubr
          vstem
          277 -70 rmoveto
          -20 -18 10 -84 callsubr
          -22 -65 rlineto
          0 33 -15 45 90 76 65 95 17 vhcurveto
          46 260 21 callgsubr
          -54 -50 0 hvcurveto
          21 120 rlineto
          135 -19 callgsubr
          -135 hlineto
          19 110 rlineto
          -70 hlineto
          -35 -30 -14 -80 rlineto
          -65 -14 callsubr
          65 hlineto
          -91 -520 -79 callsubr
          55 315 rlineto
          0 56 60 60 55 33 -40 -55 -10 vhcurveto
          -46 -260 rlineto
          -60 -11 -35 -30 -45 hhcurveto
          endchar
        </CharString>
        <CharString name="afii10100">
          -112 -2 callsubr
          70 50 150 -22 callgsubr
          -117 270 -103 callsubr
        </CharString>
        <CharString name="afii10101">
          -72 9 callgsubr
          25 101 vstem
          322 440 rmoveto
          60 -100 callgsubr
          -56 55 -100 -125 -88 callgsubr
          vhcurveto
          -88 callsubr
          135 hhcurveto
          100 74 -37 callgsubr
          -24 60 rlineto
          -10 hlineto
          0 -58 -45 -60 -74 -42 45 115 15 vhcurveto
          180 -19 callgsubr
          -180 hlineto
          110 29 52 40 64 hhcurveto
          endchar
        </CharString>
        <CharString name="afii10102">
          -67 26 callsubr
          20 100 180 100 vstem
          193 -10 rmoveto
          145 70 60 90 16 hvcurveto
          -9 callsubr
          -288 -45 20 110 rrcurveto
          35 6 35 30 70 hhcurveto
          70 -100 callgsubr
          -56 55 -110 -130 -70 -60 -85 -15 vhcurveto
          16 callsubr
          288 45 -20 -110 rrcurveto
          -40 -7 -35 -30 -85 hhcurveto
          -80 -42 -96 callsubr
          56 -55 120 vhcurveto
          endchar
        </CharString>
        <CharString name="afii10103">
          -277 -48 callgsubr
          100 120 hstem
          50 100 vstem
          138 -90 callgsubr
          34 140 rmoveto
          -27 callgsubr
        </CharString>
        <CharString name="afii10104">
          -277 -48 callgsubr
          100 120 hstemhm
          -50 120 -20 100 -20 120 hintmask 11101000
          138 -90 callgsubr
          hintmask 11110100
          -56 140 rmoveto
          -97 callgsubr
          180 -29 callsubr
        </CharString>
        <CharString name="afii10105">
          -82 callsubr
        </CharString>
        <CharString name="afii10106">
          233 -10 80 -49 -21 260 70 100 70 hstemhm
          -13 183 150 100 190 100 hintmask 01111110
          478 330 rmoveto
          -9 callsubr
          rlineto
          -330 hlineto
          -80 -340 rlineto
          -80 -19 -24 -20 -25 -15 callsubr
          -10 hlineto
          -16 -65 rlineto
          hintmask 10111110
          14 callsubr
          135 hlineto
          hintmask 01111110
          -75 -430 rlineto
          190 -73 callsubr
          hintmask 10111110
          -65 -12 -35 -30 -70 hhcurveto
          -90 15 callsubr
        </CharString>
        <CharString name="afii10107">
          243 0 70 170 70 190 -20 hstem
          50 100 180 100 190 100 vstem
          484 310 rmoveto
          34 190 -76 callsubr
          -34 -190 rlineto
          -180 hlineto
          34 190 -54 callgsubr
          42 240 rlineto
          180 hlineto
          -42 -240 rlineto
          190 hlineto
          140 70 60 95 17 hvcurveto
          95 17 -50 60 -140 -38 callsubr
          70 25 -30 -55 -10 hvcurveto
          -55 -10 -35 -30 -70 hhcurveto
          -90 hlineto
          -9 callsubr
          rlineto
          endchar
        </CharString>
        <CharString name="afii10108">
          -85 callgsubr
        </CharString>
        <CharString name="afii10109">
          -40 callsubr
          60 -32 callgsubr
          50 100 hintmask 10110110
          330 260 rmoveto
          0 62 5 25 60 vhcurveto
          35 85 rlineto
          20 8 12 10 15 hhcurveto
          10 9 -5 -68 callgsubr
          hintmask 10101110
          22 65 rlineto
          hintmask 10110110
          0 -24 10 -35 -57 -35 -30 -55 -23 vhcurveto
          -35 -85 rlineto
          -30 -12 -23 -20 -38 hhcurveto
          -50 hlineto
          hintmask 01101110
          37 210 -54 callgsubr
          38 220 rlineto
          60 hlineto
          35 19 -20 -30 2 hvcurveto
          9 -95 rlineto
          hintmask 10110110
          -54 4 26 -31 55 hhcurveto
          hintmask 01110110
          35 27 10 0 hvcurveto
          1 65 rlineto
          -5 hlineto
          hintmask 10110110
          0 -11 -5 -10 -15 -8 10 20 -2 vhcurveto
          -8 95 rlineto
          -5 65 -67 10 0 vvcurveto
          26 430 18 callsubr
        </CharString>
        <CharString name="afii10110">
          -52 -210 70 161 -3 callsubr
          60 -25 callsubr
          65 -2 callgsubr
          hintmask 11110110
          75 -140 rmoveto
          -30 -21 25 -84 callsubr
          -36 -65 rlineto
          0 34 -30 60 85 69 60 80 36 vhcurveto
          261 570 -76 callsubr
          -150 -330 rlineto
          -13 -30 -20 -50 -87 callgsubr
          -2 50 -5 30 vhcurveto
          -51 3 callgsubr
          77 -12 callsubr
          40 hlineto
          -33 -70 rlineto
          -40 -18 -34 -30 -35 hhcurveto
          245 740 rmoveto
          hintmask 11101110
          -40 -16 -92 callgsubr
          hintmask 11110110
          -50 -9 -24 -20 -40 hhcurveto
          endchar
        </CharString>
        <CharString name="afii10145">
          103 -16 callgsubr
          80 90 80 100 cntrmask 00011100
          hintmask 01111100
          240 hmoveto
          hintmask 10111100
          -17 13 callsubr
          80 hlineto
          hintmask 01111100
          37 150 rlineto
          175 -94 callgsubr
          -111 -630 rlineto
          -250 hlineto
          4 callsubr
          -100 hlineto
          -95 callgsubr
          endchar
        </CharString>
        <CharString name="afii10193">
          23 -16 callsubr
          55 90 55 100 cntrmask 00011100
          hintmask 01111100
          200 hmoveto
          hintmask 10111100
          -15 -140 rlineto
          80 hlineto
          hintmask 01111100
          35 140 rlineto
          150 hlineto
          -52 callsubr
          -76 -430 rlineto
          -200 hlineto
          76 430 -76 callsubr
          -23 callgsubr
          endchar
        </CharString>
        <CharString name="afii61352">
          429 21 -21 220 70 60 60 240 50 10 11 callsubr
          250 100 61 90 140 90 hintmask 1111011110000000
          634 220 rmoveto
          280 -19 callgsubr
          -280 hlineto
          -242 -290 rmoveto
          110 -94 callgsubr
          -79 -445 rlineto
          -5 -30 -6 -15 callgsubr
          -6 55 -9 30 vhcurveto
          -131 445 rlineto
          -110 -75 callsubr
          78 445 rlineto
          5 30 6 55 0 vvcurveto
          4 hlineto
          0 6 -55 9 -30 vhcurveto
          577 205 0 callgsubr
          -90 -16 -35 -30 -40 hhcurveto
          -40 -25 30 90 16 hvcurveto
          90 16 35 30 40 hhcurveto
          hintmask 1110111110000000
          11 60 rmoveto
          -95 -77 -65 -115 -20 hvcurveto
          -115 -20 53 -65 95 hhcurveto
          95 77 65 7 callgsubr
          hvcurveto
          7 callgsubr
          -53 65 -95 hhcurveto
          endchar
        </CharString>
        <CharString name="agrave">
          -79 callgsubr
          40 150 -4 callsubr
          hintmask 10110110
          -101 callgsubr
          hintmask 01110110
          -103 callgsubr
          hintmask 10110110
          -97 callsubr
          hintmask 00001000
          -119 475 -89 callsubr
        </CharString>
        <CharString name="amacron">
          -79 callgsubr
          80 70 -4 callsubr
          hintmask 10110110
          -101 callgsubr
          hintmask 01110110
          -103 callgsubr
          hintmask 10110110
          -97 callsubr
          hintmask 00001000
          -133 435 -85 callsubr
        </CharString>
        <CharString name="ampersand">
          88 -30 callgsubr
          645 65 hstemhm
          5 100 -40 100 145 100 35 90 hintmask 10110110
          36 180 rmoveto
          -110 -19 66 -80 130 hhcurveto
          75 74 25 45 63 hvcurveto
          hintmask 01101110
          40 -60 rlineto
          120 hlineto
          -83 125 44 55 32 65 13 75 rlinecurve
          -90 hlineto
          -9 -50 -13 -45 -21 -35 -118 180 rcurveline
          0 149 80 19 110 vhcurveto
          85 15 -53 65 -105 hhcurveto
          -110 -77 -65 -95 -17 hvcurveto
          -15 -90 71 -80 0 vvcurveto
          hintmask 10110110
          -84 -50 -81 -60 -16 -90 rrcurveto
          209 -120 rmoveto
          -8 callgsubr
          70 12 hvcurveto
          10 55 47 40 62 40 134 -205 rcurveline
          -35 -41 -48 -15 -55 hhcurveto
          hintmask 10101110
          16 490 rmoveto
          65 12 35 30 45 hhcurveto
          40 25 -30 -55 -10 hvcurveto
          -12 -70 -95 -55 0 vvcurveto
          0 -49 60 9 55 vhcurveto
          endchar
        </CharString>
        <CharString name="aogonek">
          -22 -43 callgsubr
          -79 callgsubr
          hstemhm
          20 100 180 70 -55 100 hintmask 0010111010000000
          -101 callgsubr
          hintmask 0001111010000000
          -103 callgsubr
          hintmask 0010111010000000
          -97 callsubr
          hintmask 1000000100000000
          33 -325 -52 callgsubr
          hintmask 0100000100000000
          -100 callsubr
          hintmask 1000000100000000
          -45 callgsubr
        </CharString>
        <CharString name="apple">
          758 260 165 -149 -21 hstemhm
          160 30 0 170 330 160 0 36 0 160 hintmask 10100100
          205 260 rmoveto
          29 165 -194 -165 rlineto
          hintmask 10010100
          379 80 rmoveto
          45 8 -33 40 -45 hhcurveto
          -45 -47 -40 -45 -8 hvcurveto
          hintmask 01010100
          -45 -7 32 -40 45 hhcurveto
          45 48 40 45 7 hvcurveto
          15 80 rmoveto
          60 -165 120 165 rlineto
          hintmask 10101010
          121 -160 rmoveto
          140 hlineto
          -115 140 rlineto
          -40 -140 rmoveto
          -61 165 -119 -165 rlineto
          384 160 rmoveto
          -140 hlineto
          115 -140 rlineto
          hintmask 10100100
          32 -20 rmoveto
          140 hlineto
          -115 140 rlineto
          hintmask 01101010
          164 20 rmoveto
          -140 hlineto
          115 -140 rlineto
          39 140 rmoveto
          60 -165 120 165 rlineto
          endchar
        </CharString>
        <CharString name="aring">
          -79 callgsubr
          50 50 90 50 hstemhm
          20 100 13 60 80 60 -18 100 hintmask 1011001001000000
          -101 callgsubr
          hintmask 0111001001000000
          -103 callgsubr
          hintmask 1011001001000000
          -97 callsubr
          hintmask 0000110110000000
          -2 475 -99 callsubr
        </CharString>
        <CharString name="asciicircum">
          -97 461 -21 280 -20 hstem
          281 720 rmoveto
          -229 -280 -79 callsubr
          147 180 83 -180 -79 callsubr
          -131 280 rlineto
          endchar
        </CharString>
        <CharString name="asciitilde">
          -37 245 90 -25 25 hstemhm
          hintmask 01000000
          189 310 rmoveto
          hintmask 10000000
          60 19 -65 80 hhcurveto
          70 59 50 45 22 hvcurveto
          -46 50 rlineto
          -9 hlineto
          1 -36 -55 -45 hhcurveto
          hintmask 01000000
          -60 -19 65 -80 hhcurveto
          -70 -59 -50 -45 -23 hvcurveto
          46 -50 rlineto
          9 hlineto
          -1 37 55 45 hhcurveto
          endchar
        </CharString>
        <CharString name="asterisk">
          -117 361 -21 360 -20 hstem
          145 70 vstem
          107 580 rmoveto
          94 -60 -115 -60 24 -60 116 60 -22 -120 rlineto
          70 hlineto
          22 120 94 -60 46 60 -95 60 116 60 -25 60 -115 -60 21 120 rlineto
          -70 hlineto
          -21 -120 -95 60 rlineto
          endchar
        </CharString>
        <CharString name="at">
          403 -120 70 66 -21 60 75 330 75 115 70 hstem
          20 90 125 100 190 100 145 90 vstem
          555 175 rmoveto
          0 -48 -45 -50 -55 -37 45 120 22 vhcurveto
          120 21 53 45 55 hhcurveto
          50 30 -55 0 hvcurveto
          -188 -525 rmoveto
          140 85 -37 callgsubr
          -24 60 rlineto
          -10 hlineto
          0 -68 -45 -100 -190 -116 140 210 37 vhcurveto
          210 37 165 140 190 hhcurveto
          190 115 -140 -210 -37 hvcurveto
          -135 -23 -63 -45 -45 hhcurveto
          -25 -17 20 0 hvcurveto
          68 385 rlineto
          -70 hlineto
          -20 -55 rlineto
          -5 hlineto
          0 -33 65 -85 -100 -88 -75 -165 -29 vhcurveto
          -165 -30 62 -75 100 hhcurveto
          80 60 55 -68 callgsubr
          0 25 -55 100 100 94 80 165 29 vhcurveto
          240 43 -149 180 -240 hhcurveto
          -240 -211 -180 -240 -43 hvcurveto
          -240 -42 148 -180 230 hhcurveto
          endchar
        </CharString>
        <CharString name="atilde">
          -79 callgsubr
          50 70 -25 25 -25 70 -4 callsubr
          hintmask 1011000110000000
          -101 callgsubr
          hintmask 0111000110000000
          -103 callgsubr
          hintmask 1011000110000000
          -97 callsubr
          hintmask 0000010000000000
          75 445 rmoveto
          1 -24 -40 -30 hhcurveto
          hintmask 0000001000000000
          -30 -2 45 -50 hhcurveto
          -50 -32 -40 -45 -23 hvcurveto
          36 -25 rlineto
          9 hlineto
          -1 24 40 30 hhcurveto
          hintmask 0000100000000000
          30 2 -45 50 hhcurveto
          50 32 40 45 23 hvcurveto
          -36 25 rlineto
          endchar
        </CharString>
        <CharString name="b">
          8 -58 callsubr
          440 70 190 -20 hstemhm
          50 100 210 100 hintmask 10111100
          224 420 rmoveto
          0 43 20 55 65 41 -50 -140 -24 vhcurveto
          -135 -24 -59 -50 -55 hhcurveto
          -60 -34 60 0 hvcurveto
          31 575 rmoveto
          -35 -30 rlineto
          hintmask 01111100
          -118 -670 rlineto
          70 hlineto
          20 60 rlineto
          5 hlineto
          hintmask 10111100
          0 33 -70 100 95 -49 callgsubr
          -115 hhcurveto
          -60 -55 -30 0 hvcurveto
          39 220 rlineto
          endchar
        </CharString>
        <CharString name="backslash">
          -117 -77 callgsubr
          hstem
          198 34 callsubr
          187 -45 callsubr
          endchar
        </CharString>
        <CharString name="bar">
          25 callgsubr
          188 6 callsubr
          -159 -900 -79 callsubr
          159 900 rlineto
          endchar
        </CharString>
        <CharString name="braceleft">
          23 callgsubr
          15 175 -100 100 -100 200 cntrmask 11100000
          hintmask 11110000
          58 245 rmoveto
          hintmask 11101000
          50 20 -25 -70 -12 hvcurveto
          -32 -6 callgsubr
          -80 -14 50 -60 105 hhcurveto
          hintmask 11100100
          35 hlineto
          12 70 rlineto
          -35 hlineto
          hintmask 11110000
          -40 -21 25 45 8 hvcurveto
          32 180 rlineto
          21 120 -78 10 0 vvcurveto
          0 82 10 21 120 vhcurveto
          32 180 rlineto
          45 7 30 25 40 hhcurveto
          hintmask 11100100
          35 hlineto
          12 70 rlineto
          -35 hlineto
          -105 -70 -60 -80 -14 hvcurveto
          -32 -6 callgsubr
          hintmask 11110000
          -70 -13 -29 -25 -50 hhcurveto
          endchar
        </CharString>
        <CharString name="braceright">
          23 callgsubr
          -15 200 -100 100 -100 175 cntrmask 11100000
          hintmask 11100100
          315 315 rmoveto
          hintmask 11110000
          -50 -21 25 70 13 hvcurveto
          32 180 rlineto
          80 14 -50 60 -105 hhcurveto
          -35 -58 callgsubr
          35 hlineto
          hintmask 11101000
          40 20 -25 -45 -7 hvcurveto
          -32 -6 callgsubr
          -21 -120 78 -10 0 vvcurveto
          0 -82 -10 -21 -120 vhcurveto
          -32 -6 callgsubr
          -45 -8 -29 -25 -40 hhcurveto
          hintmask 11110000
          -34 -58 callgsubr
          34 hlineto
          105 70 60 80 14 hvcurveto
          32 180 rlineto
          hintmask 11100100
          70 12 30 25 50 hhcurveto
          endchar
        </CharString>
        <CharString name="bracketleft">
          -217 -170 70 760 70 17 callgsubr
          -100 200 hintmask 11010000
          247 -100 rmoveto
          hintmask 11100000
          -100 hlineto
          134 760 rlineto
          hintmask 11010000
          100 hlineto
          12 70 rlineto
          -200 hlineto
          -158 -900 rlineto
          200 hlineto
          endchar
        </CharString>
        <CharString name="bracketright">
          -217 -170 70 760 70 hstemhm
          -5 200 -100 100 hintmask 11100000
          -34 -170 rmoveto
          199 hlineto
          158 900 rlineto
          -200 -58 callgsubr
          hintmask 11010000
          100 hlineto
          -134 -760 rlineto
          hintmask 11100000
          -100 hlineto
          endchar
        </CharString>
        <CharString name="breve">
          -207 560 -25 callsubr
          -15 -2 callgsubr
          hintmask 10110000
          244 620 rmoveto
          hintmask 01110000
          -40 -17 -92 callgsubr
          hintmask 10110000
          -17 callgsubr
        </CharString>
        <CharString name="brokenbar">
          25 callgsubr
          129 -200 rmoveto
          67 380 -76 callsubr
          -67 -380 rlineto
          259 900 rmoveto
          -100 hlineto
          -67 -380 -79 callsubr
          endchar
        </CharString>
        <CharString name="bullet">
          -157 190 240 hstem
          40 240 vstem
          334 310 rmoveto
          70 13 -42 50 -70 hhcurveto
          -70 -58 -50 -70 -13 hvcurveto
          -70 -12 41 -50 70 hhcurveto
          70 59 50 70 12 hvcurveto
          endchar
        </CharString>
        <CharString name="c">
          -72 26 callsubr
          25 100 vstem
          322 440 rmoveto
          60 -100 callgsubr
          -56 55 -100 -125 -88 callgsubr
          vhcurveto
          -88 callsubr
          135 hhcurveto
          100 74 -37 callgsubr
          -24 60 rlineto
          -10 hlineto
          0 -58 -45 -60 -80 -41 50 -38 callgsubr
          59 50 70 hhcurveto
          endchar
        </CharString>
        <CharString name="cacute">
          -72 -59 callsubr
          40 -32 callgsubr
          25 100 hintmask 11010000
          322 440 rmoveto
          60 -100 callgsubr
          -56 55 -100 -125 -88 callgsubr
          vhcurveto
          -88 callsubr
          135 hhcurveto
          100 74 -37 callgsubr
          -24 60 rlineto
          -10 hlineto
          0 -58 -45 -60 -80 -41 50 -38 callgsubr
          59 50 70 hhcurveto
          hintmask 00100000
          33 260 -103 callsubr
        </CharString>
        <CharString name="caron">
          -207 581 -56 callsubr
          hstem
          268 560 -102 callgsubr
        </CharString>
        <CharString name="ccaron">
          -72 -59 callsubr
          71 -56 callsubr
          hstemhm
          25 100 hintmask 11001000
          322 440 rmoveto
          60 -100 callgsubr
          -56 55 -100 -125 -88 callgsubr
          vhcurveto
          -88 callsubr
          135 hhcurveto
          100 74 -37 callgsubr
          -24 60 rlineto
          -10 hlineto
          0 -58 -45 -60 -80 -41 50 -38 callgsubr
          59 50 70 hhcurveto
          hintmask 00110000
          36 120 -102 callgsubr
        </CharString>
        <CharString name="ccedilla">
          -72 -28 callgsubr
          -30 -48 callsubr
          hstemhm
          25 100 67 150 -65 65 hintmask 00011100
          322 440 rmoveto
          60 -100 callgsubr
          -56 55 -100 -125 -88 callgsubr
          vhcurveto
          -88 callsubr
          135 hhcurveto
          100 74 -37 callgsubr
          -24 60 rlineto
          -10 hlineto
          0 -58 -45 -60 -80 -41 50 -38 callgsubr
          59 50 70 hhcurveto
          hintmask 10100010
          -67 -420 -39 callsubr
          hintmask 11000001
          -63 callsubr
          hintmask 11000010
          -93 callsubr
        </CharString>
        <CharString name="cedilla">
          -332 -28 callgsubr
          hstemhm
          10 150 -65 65 hintmask 10110000
          73 20 -39 callsubr
          hintmask 11001000
          -63 callsubr
          hintmask 11010000
          -93 callsubr
        </CharString>
        <CharString name="cent">
          -72 -70 130 380 120 hstem
          25 100 60 100 vstem
          283 560 rmoveto
          -9 -55 -101 -21 -78 -84 -26 -150 rlinecurve
          -27 -148 46 -83 96 -22 -12 -67 rcurveline
          100 hlineto
          11 63 rlineto
          78 11 56 41 0 vvcurveto
          -24 60 rlineto
          -10 hlineto
          0 -58 -45 -60 -80 -41 50 -38 callgsubr
          59 50 70 hhcurveto
          60 -100 callgsubr
          -38 37 -68 13 vhcurveto
          9 55 rlineto
          endchar
        </CharString>
        <CharString name="circumflex">
          -207 581 -56 callsubr
          hstem
          221 690 -99 callgsubr
        </CharString>
        <CharString name="colon">
          -327 -10 120 280 27 callsubr
          vstem
          23 -28 callsubr
          71 400 -74 callsubr
          endchar
        </CharString>
        <CharString name="comma">
          -327 -109 -21 141 -21 120 -20 hstem
          15 -77 callsubr
          endchar
        </CharString>
        <CharString name="commaaccent">
          -397 -215 -36 callgsubr
          hstem
          -15 110 vstem
          -28 -75 -105 callgsubr
        </CharString>
        <CharString name="copyright">
          333 -30 70 85 65 320 65 85 70 hstem
          15 -2 callgsubr
          390 90 vstem
          -82 callgsubr
          -235 -310 rmoveto
          -150 -26 62 -75 120 hhcurveto
          87 66 50 0 hvcurveto
          -21 50 rlineto
          -9 hlineto
          0 -52 -35 -50 -70 -37 45 7 callgsubr
          vhcurveto
          7 callgsubr
          53 45 60 hhcurveto
          50 40 -35 0 hvcurveto
          9 hlineto
          39 50 rlineto
          0 -49 50 -87 -110 -88 -75 -150 -27 vhcurveto
          endchar
        </CharString>
        <CharString name="currency">
          48 21 -21 170 60 40 60 300 70 hstem
          75 -10 callgsubr
          vstem
          24 170 rmoveto
          80 hlineto
          -29 -170 -79 callsubr
          29 170 rlineto
          250 hlineto
          11 60 rlineto
          -250 hlineto
          7 40 rlineto
          80 hlineto
          170 94 80 130 23 -3 callgsubr
          -170 hhcurveto
          -180 hlineto
          -65 -370 rlineto
          -80 hlineto
          -11 -60 rlineto
          80 hlineto
          -7 -40 rlineto
          -80 hlineto
          198 100 rmoveto
          53 300 rlineto
          80 hlineto
          100 -18 callsubr
          -100 hhcurveto
          endchar
        </CharString>
        <CharString name="d">
          8 -58 callsubr
          440 70 190 -20 -49 callsubr
          hintmask 10111100
          357 125 rmoveto
          0 -56 -60 -60 -55 -41 50 135 24 vhcurveto
          31 callsubr
          55 37 -20 0 hvcurveto
          44 7 callsubr
          -34 -190 rlineto
          0 -45 30 -60 -115 -88 callgsubr
          vhcurveto
          -88 callsubr
          95 -72 callsubr
          hintmask 01111100
          25 callsubr
        </CharString>
        <CharString name="dagger">
          -67 -179 -21 610 70 220 -20 hstem
          155 100 vstem
          119 -200 rmoveto
          100 hlineto
          108 610 rlineto
          160 hlineto
          12 70 rlineto
          -160 hlineto
          39 220 -76 callsubr
          -39 -220 rlineto
          -160 -58 callgsubr
          160 hlineto
          endchar
        </CharString>
        <CharString name="daggerdbl">
          -67 -179 -21 220 70 320 70 220 -20 hstem
          155 100 vstem
          170 90 rmoveto
          -160 -58 callgsubr
          160 hlineto
          -39 -220 -79 callsubr
          39 220 rlineto
          160 hlineto
          12 70 rlineto
          -160 hlineto
          57 8 callgsubr
          160 hlineto
          12 70 rlineto
          -160 hlineto
          39 220 -76 callsubr
          -39 -220 rlineto
          -160 -58 callgsubr
          160 hlineto
          endchar
        </CharString>
        <CharString name="dcaron">
          118 -58 callsubr
          440 70 -5 -36 callgsubr
          -49 callsubr
          65 110 hintmask 00011001
          613 -73 callgsubr
          hintmask 10101110
          -256 -520 rmoveto
          0 -56 -60 -60 -55 -41 50 135 24 vhcurveto
          31 callsubr
          55 37 -20 0 hvcurveto
          44 7 callsubr
          -34 -190 rlineto
          0 -45 30 -60 -115 -88 callgsubr
          vhcurveto
          -88 callsubr
          95 -72 callsubr
          hintmask 01101110
          25 callsubr
        </CharString>
        <CharString name="dcroat">
          18 -58 callsubr
          400 70 60 70 100 -20 -49 callsubr
          hintmask 10111110
          453 670 rmoveto
          -6 callsubr
          -105 -58 callgsubr
          105 hlineto
          -16 -90 rlineto
          0 -45 30 -60 -115 -100 -85 -155 -27 vhcurveto
          -155 -27 70 -85 95 -72 callsubr
          hintmask 01111110
          -60 70 vlineto
          93 530 -71 callgsubr
          12 70 -51 callsubr
          18 100 rlineto
          -70 hlineto
          -131 -575 rmoveto
          hintmask 10111110
          0 -56 -60 -60 -55 -41 50 7 callgsubr
          vhcurveto
          120 21 59 50 65 hhcurveto
          55 37 -20 0 hvcurveto
          endchar
        </CharString>
        <CharString name="degree">
          -147 370 65 210 65 hstem
          -5 90 160 90 vstem
          430 540 rmoveto
          100 17 -57 70 -100 hhcurveto
          -100 -83 -70 -100 -17 hvcurveto
          -100 -18 58 -70 100 hhcurveto
          100 82 70 100 18 hvcurveto
          -90 hmoveto
          -70 -13 -41 -35 -45 hhcurveto
          -45 -29 35 70 13 hvcurveto
          70 12 41 35 45 hhcurveto
          45 29 -35 -70 -12 hvcurveto
          endchar
        </CharString>
        <CharString name="dieresis">
          -222 565 110 hstem
          -15 -34 callsubr
          vstem
          204 620 -107 callsubr
        </CharString>
        <CharString name="divide">
          -57 100 120 70 80 70 120 hstem
          150 120 cntrmask 11100000
          466 290 12 callgsubr
          -410 -31 callsubr
          122 -130 -74 callsubr
          60 340 rmoveto
          -35 -7 21 -25 35 hhcurveto
          35 29 25 35 7 hvcurveto
          -90 callsubr
          endchar
        </CharString>
        <CharString name="dollar">
          -32 -70 130 580 130 hstem
          15 100 50 105 70 100 vstem
          152 -70 rmoveto
          105 hlineto
          12 65 114 19 72 73 18 103 rlinecurve
          39 220 -332 -40 28 160 rrcurveto
          60 11 58 50 75 hhcurveto
          90 -100 callgsubr
          -44 43 -102 10 vhcurveto
          11 62 rlineto
          -105 hlineto
          -12 -67 -98 -22 -68 -70 -16 -91 rlinecurve
          -39 -220 332 40 -28 -160 rrcurveto
          -70 -12 -59 -50 -90 hhcurveto
          -90 -52 -96 callsubr
          51 -42 100 -10 vhcurveto
          endchar
        </CharString>
        <CharString name="dotaccent">
          -387 560 120 hstem
          -15 120 vstem
          214 620 -95 callsubr
          endchar
        </CharString>
        <CharString name="dotlessi">
          -277 -56 callgsubr
          50 100 vstem
          138 -90 callgsubr
          endchar
        </CharString>
        <CharString name="e">
          -22 -72 callgsubr
          hstem
          25 100 210 100 cntrmask 11100000
          -107 callgsubr
          endchar
        </CharString>
        <CharString name="eacute">
          -22 -72 callgsubr
          40 150 20 callgsubr
          -107 callgsubr
          hintmask 00010000
          51 260 -103 callsubr
        </CharString>
        <CharString name="ecaron">
          -22 -72 callgsubr
          71 -56 callsubr
          -49 callsubr
          hintmask 11100110
          -107 callgsubr
          hintmask 00011000
          53 120 -102 callgsubr
        </CharString>
        <CharString name="ecircumflex">
          -22 -72 callgsubr
          71 -56 callsubr
          -49 callsubr
          hintmask 11100110
          -107 callgsubr
          hintmask 00011000
          6 250 -99 callgsubr
        </CharString>
        <CharString name="edieresis">
          -22 -72 callgsubr
          55 110 hstemhm
          25 100 -43 -34 callsubr
          -32 100 hintmask 11101001
          -107 callgsubr
          hintmask 00010110
          -6 180 -107 callsubr
        </CharString>
        <CharString name="edotaccent">
          -22 -72 callgsubr
          50 120 hstemhm
          25 100 42 120 48 100 hintmask 11101010
          -107 callgsubr
          hintmask 00010100
          89 180 -95 callsubr
          endchar
        </CharString>
        <CharString name="egrave">
          -22 -72 callgsubr
          40 150 20 callgsubr
          -107 callgsubr
          hintmask 00010000
          -74 260 -89 callsubr
        </CharString>
        <CharString name="eight">
          33 -60 callsubr
          hstemhm
          15 100 -70 100 220 100 -70 100 hintmask 11100100
          313 330 rmoveto
          69 -30 58 -40 -14 -80 rrcurveto
          -70 -12 -59 -50 -90 hhcurveto
          -90 -41 50 70 12 hvcurveto
          14 80 72 40 81 30 rrcurveto
          14 80 rmoveto
          hintmask 11011000
          -57 20 -44 35 13 70 rrcurveto
          55 10 58 50 60 hhcurveto
          60 42 -50 -55 -10 hvcurveto
          -13 -70 -56 -35 -63 -20 rrcurveto
          -188 125 rmoveto
          -23 -130 119 -7 callgsubr
          hintmask 11100100
          0 -161 -35 -28 -155 vhcurveto
          -100 -17 74 -90 150 hhcurveto
          150 106 90 100 17 hvcurveto
          28 155 -149 35 0 vvcurveto
          hintmask 11011000
          0 131 35 23 130 vhcurveto
          95 17 -66 80 -130 hhcurveto
          -130 -94 -80 -95 -17 hvcurveto
          endchar
        </CharString>
        <CharString name="ellipsis">
          53 -10 27 callsubr
          70 120 70 120 cntrmask 01110000
          23 -28 callsubr
          190 hmoveto
          10 callsubr
          35 hhcurveto
          35 29 -31 callgsubr
          35 6 -20 -10 callsubr
          -30 -46 callsubr
          190 hmoveto
          10 callsubr
          35 hhcurveto
          35 29 -31 callgsubr
          35 6 -20 -10 callsubr
          -30 -46 callsubr
          endchar
        </CharString>
        <CharString name="emacron">
          -22 -72 callgsubr
          80 70 20 callgsubr
          -107 callgsubr
          hintmask 00010000
          -89 220 -85 callsubr
        </CharString>
        <CharString name="emdash">
          193 250 80 hstem
          709 250 12 callgsubr
          -660 -31 callsubr
          endchar
        </CharString>
        <CharString name="endash">
          250 80 hstem
          499 250 12 callgsubr
          -450 -31 callsubr
          endchar
        </CharString>
        <CharString name="eogonek">
          -22 -43 callgsubr
          -72 callgsubr
          hstemhm
          25 100 40 70 100 100 hintmask 00111101
          -107 callgsubr
          hintmask 10000010
          -55 -540 -52 callgsubr
          hintmask 01000010
          -100 callsubr
          hintmask 10000010
          -45 callgsubr
        </CharString>
        <CharString name="equal">
          -57 200 80 100 80 hstem
          445 200 12 callgsubr
          -400 -31 callsubr
          432 180 12 callgsubr
          -400 -31 callsubr
          endchar
        </CharString>
        <CharString name="eth">
          -12 -10 70 325 75 253 -20 hstemhm
          15 100 220 100 -85 85 hintmask 11110100
          274 524 rmoveto
          58 -30 41 63 46 -35 13 -55 -14 -77 rlinecurve
          50 -21 -46 20 -70 hhcurveto
          -100 -100 -85 -150 -27 hvcurveto
          -150 -26 70 -85 125 hhcurveto
          125 100 85 150 26 hvcurveto
          18 100 27 157 -27 92 -75 51 rlinecurve
          hintmask 11111000
          38 59 -59 29 -38 -59 -20 7 -22 5 -23 4 rlinecurve
          -59 10 -22 -70 53 -10 19 -4 16 -4 15 -5 rlinecurve
          -23 -202 rmoveto
          60 42 -50 11 callgsubr
          -115 -20 -59 -50 -60 hhcurveto
          -60 -41 50 7 callgsubr
          hvcurveto
          110 20 58 50 60 hhcurveto
          endchar
        </CharString>
        <CharString name="exclam">
          -237 -10 120 590 -20 hstem
          70 100 vstem
          111 180 rmoveto
          80 hlineto
          112 520 rlineto
          -120 hlineto
          -115 -650 -91 callsubr
          endchar
        </CharString>
        <CharString name="exclamdown">
          -237 -179 -21 590 120 hstem
          70 100 vstem
          24 -200 rmoveto
          120 hlineto
          72 520 rlineto
          -80 hlineto
          3 130 -74 callsubr
          endchar
        </CharString>
        <CharString name="f">
          -187 -2 callsubr
          70 140 70 hstem
          60 100 vstem
          347 640 rmoveto
          45 37 -45 0 hvcurveto
          10 hlineto
          46 60 rlineto
          0 -50 55 -85 -100 -77 -65 -95 -17 vhcurveto
          -8 -50 rlineto
          -65 -14 callsubr
          65 hlineto
          -75 -430 -79 callsubr
          75 430 rlineto
          135 -19 callgsubr
          -135 hlineto
          8 50 rlineto
          60 11 35 30 45 hhcurveto
          endchar
        </CharString>
        <CharString name="five">
          -22 -10 70 300 70 200 70 hstem
          35 100 205 100 vstem
          103 390 rmoveto
          25 -30 rlineto
          120 hlineto
          105 41 -50 -100 -17 hvcurveto
          -100 -18 -59 -50 -105 hhcurveto
          -90 -42 -96 callsubr
          56 -55 130 165 94 80 -38 callgsubr
          -66 80 -160 hhcurveto
          -65 hlineto
          36 200 rlineto
          279 hlineto
          12 70 rlineto
          -379 hlineto
          endchar
        </CharString>
        <CharString name="florin">
          -136 -200 70 560 70 140 70 hstem
          51 -40 rmoveto
          -60 -15 -35 -30 -46 hhcurveto
          -28 -19 25 -84 callsubr
          -42 -65 rlineto
          0 31 -30 59 102 78 65 95 25 vhcurveto
          126 470 rlineto
          135 hlineto
          19 70 rlineto
          -135 hlineto
          12 50 rlineto
          60 15 39 30 45 hhcurveto
          45 32 -45 0 hvcurveto
          10 hlineto
          52 60 rlineto
          0 -45 55 -85 -107 -76 -65 -95 -25 vhcurveto
          -12 -50 -51 callsubr
          -19 -70 -71 callgsubr
          endchar
        </CharString>
        <CharString name="four">
          13 21 -21 170 70 460 -20 hstem
          315 100 vstem
          457 240 rmoveto
          81 460 -76 callsubr
          -411 -460 -6 callsubr
          330 hlineto
          -29 -170 -79 callsubr
          29 170 rlineto
          80 -19 callgsubr
          -169 260 rmoveto
          20 24 31 46 0 vvcurveto
          4 hlineto
          0 -16 -45 -4 -25 vhcurveto
          -46 -260 rlineto
          -220 hlineto
          endchar
        </CharString>
        <CharString name="g">
          24 callgsubr
          20 callgsubr
          -76 callgsubr
          hintmask 11011100
          23 callsubr
          hintmask 11101100
          -89 callgsubr
          endchar
        </CharString>
        <CharString name="gbreve">
          24 callgsubr
          80 -25 callsubr
          25 100 -33 -2 callgsubr
          -57 100 hintmask 1110001001000000
          -76 callgsubr
          hintmask 1101001001000000
          23 callsubr
          hintmask 1110001001000000
          -89 callgsubr
          hintmask 1101001001000000
          hintmask 0000100110000000
          -82 630 rmoveto
          hintmask 0000010110000000
          -40 -17 -92 callgsubr
          hintmask 0000100110000000
          -17 callgsubr
        </CharString>
        <CharString name="gcommaaccent">
          24 callgsubr
          90 20 175 21 hstemhm
          25 100 196 110 -96 100 hintmask 1110001010000000
          -76 callgsubr
          hintmask 1101001010000000
          23 callsubr
          hintmask 1110001010000000
          -89 callgsubr
          hintmask 1101001010000000
          hintmask 0000110100000000
          11 635 rmoveto
          30 5 -20 25 -25 hhcurveto
          7 40 56 35 0 vvcurveto
          -25 31 rlineto
          0 -87 -46 -19 -106 vhcurveto
          -39 -7 21 -25 35 hhcurveto
          25 29 25 30 5 hvcurveto
          endchar
        </CharString>
        <CharString name="germandbls">
          93 -30 callgsubr
          420 70 150 70 hstemhm
          10 165 -100 100 110 90 -60 60 -60 100 45 100 hintmask 1011100101000000
          365 60 rmoveto
          -40 -21 25 -84 callsubr
          -36 -65 rlineto
          0 35 -30 70 120 88 75 7 callgsubr
          vhcurveto
          27 150 -183 15 19 105 rrcurveto
          hintmask 1011010011000000
          9 50 41 10 11 60 rrcurveto
          80 14 -49 60 -115 hhcurveto
          -100 -77 -65 -95 -17 hvcurveto
          -10 -60 rlineto
          hintmask 1011101001000000
          -65 -58 callgsubr
          hintmask 0111010101000000
          65 hlineto
          -74 -420 -79 callsubr
          96 550 rlineto
          60 11 35 30 45 hhcurveto
          35 25 -30 -40 -7 hvcurveto
          hintmask 1011101001000000
          -9 -50 -33 -20 -9 -50 -27 -150 173 -15 -21 -115 rrcurveto
          -70 -12 -47 -40 -65 hhcurveto
          endchar
        </CharString>
        <CharString name="grave">
          -352 550 150 hstem
          108 700 -89 callsubr
        </CharString>
        <CharString name="greater">
          -82 -56 callgsubr
          98 500 rmoveto
          -17 -95 253 -155 -308 -155 -16 -95 427 215 13 70 rlineto
          endchar
        </CharString>
        <CharString name="guillemotleft">
          -52 -56 callgsubr
          149 7 callsubr
          193 190 -54 60 -259 -250 171 -250 75 60 rlineto
          -51 190 rmoveto
          147 -215 75 60 -102 155 157 155 -55 60 rlineto
          endchar
        </CharString>
        <CharString name="guillemotright">
          -52 -56 callgsubr
          170 60 rmoveto
          55 -60 259 250 -171 250 -76 -60 127 -190 rlineto
          -223 215 rmoveto
          -75 -60 103 -155 -158 -155 55 -60 223 215 rlineto
          endchar
        </CharString>
        <CharString name="guilsinglleft">
          -197 71 -21 420 -20 hstem
          30 260 rmoveto
          153 -210 rlineto
          120 hlineto
          -153 210 227 210 rlineto
          -120 hlineto
          endchar
        </CharString>
        <CharString name="guilsinglright">
          -187 71 -21 420 -20 hstem
          187 470 rmoveto
          -120 hlineto
          153 -210 -227 -210 rlineto
          120 hlineto
          227 210 rlineto
          endchar
        </CharString>
        <CharString name="h">
          18 21 -21 435 75 190 -20 hstem
          -25 callgsubr
          vstem
          203 6 callsubr
          -35 -30 -118 -670 -79 callsubr
          66 375 rlineto
          0 55 60 60 55 33 -40 -55 -10 vhcurveto
          -69 callsubr
          -100 hhcurveto
          -85 -53 -50 0 hvcurveto
          42 240 rlineto
          endchar
        </CharString>
        <CharString name="hbar">
          -85 callgsubr
        </CharString>
        <CharString name="hungarumlaut">
          -232 550 150 hstem
          153 6 callsubr
          -50 callsubr
          40 hmoveto
          -50 callsubr
          endchar
        </CharString>
        <CharString name="hyphen">
          -13 callsubr
        </CharString>
        <CharString name="i">
          -277 -48 callgsubr
          100 120 hstem
          50 100 vstem
          138 -90 callgsubr
          34 140 rmoveto
          -27 callgsubr
        </CharString>
        <CharString name="iacute">
          -270 -48 callgsubr
          70 -32 callgsubr
          50 100 hintmask 11010000
          138 -90 callgsubr
          hintmask 00100000
          -8 200 -103 callsubr
        </CharString>
        <CharString name="icircumflex">
          -267 -48 callgsubr
          101 -56 callsubr
          hstemhm
          55 100 hintmask 11001000
          143 -90 callgsubr
          hintmask 00110000
          -52 190 -99 callgsubr
        </CharString>
        <CharString name="idieresis">
          -267 -48 callgsubr
          85 110 hstemhm
          -40 110 -15 100 -20 110 hintmask 11001000
          143 -90 callgsubr
          hintmask 00110100
          -64 120 -107 callsubr
        </CharString>
        <CharString name="igrave">
          -269 -48 callgsubr
          70 -32 callgsubr
          58 100 hintmask 11010000
          146 -90 callgsubr
          hintmask 00100000
          -133 200 -89 callsubr
        </CharString>
        <CharString name="ij">
          -22 -200 70 151 -21 430 70 80 120 hstem
          50 100 155 100 vstem
          207 -130 rmoveto
          -30 -21 25 -84 callsubr
          -36 -65 rlineto
          0 34 -30 60 100 33 callsubr
          96 540 rlineto
          -355 -74 callgsubr
          75 430 rlineto
          155 hlineto
          -83 -470 rlineto
          -60 -10 -35 -30 -45 hhcurveto
          320 770 rmoveto
          -97 callgsubr
          -255 -29 callsubr
        </CharString>
        <CharString name="imacron">
          -277 -48 callgsubr
          100 70 hstemhm
          50 100 hintmask 11010000
          138 -90 callgsubr
          hintmask 00100000
          -158 150 -85 callsubr
        </CharString>
        <CharString name="iogonek">
          -282 -43 callgsubr
          -48 callgsubr
          100 120 hstemhm
          30 70 -50 100 hintmask 00111010
          138 -90 callgsubr
          34 140 rmoveto
          -97 callgsubr
          hintmask 10000100
          -155 -740 -52 callgsubr
          hintmask 01000100
          -100 callsubr
          hintmask 10000100
          -45 callgsubr
        </CharString>
        <CharString name="itilde">
          -287 -48 callgsubr
          100 -26 callgsubr
          45 100 hintmask 11000100
          133 -90 callgsubr
          hintmask 00010000
          65 190 -98 callsubr
        </CharString>
        <CharString name="j">
          -82 callsubr
        </CharString>
        <CharString name="jcircumflex">
          -259 -200 70 630 -20 91 -56 callsubr
          hstemhm
          70 100 hintmask 11001000
          -27 -130 rmoveto
          -30 -21 25 -84 callsubr
          -36 -65 rlineto
          0 34 -30 60 99 33 callsubr
          96 540 -76 callsubr
          -96 -540 rlineto
          -60 -10 -35 -30 -44 hhcurveto
          hintmask 00110000
          225 810 -99 callgsubr
        </CharString>
        <CharString name="k">
          -47 -48 callgsubr
          220 -20 hstem
          50 100 vstem
          -83 callsubr
          endchar
        </CharString>
        <CharString name="kcedilla">
          -47 -28 callgsubr
          1 -3 callsubr
          220 -20 hstemhm
          50 100 5 150 -65 65 hintmask 0001111000000000
          -83 callsubr
          hintmask 1010000100000000
          -55 -680 -39 callsubr
          hintmask 1100000010000000
          -63 callsubr
          hintmask 1100000100000000
          -93 callsubr
        </CharString>
        <CharString name="kcommaaccent">
          -47 -27 callsubr
          500 -20 220 -20 hstemhm
          50 100 23 110 hintmask 00111100
          -83 callsubr
          hintmask 11000010
          -113 -765 -105 callgsubr
        </CharString>
        <CharString name="kgreenlandic">
          -47 -56 callgsubr
          50 100 vstem
          168 500 rmoveto
          -36 -30 -82 -470 -79 callsubr
          44 250 136 -250 -20 callsubr
          -145 260 223 240 rlineto
          -115 hlineto
          -211 -230 -43 callsubr
          endchar
        </CharString>
        <CharString name="l">
          -277 -77 callgsubr
          hstem
          50 100 vstem
          50 hmoveto
          -57 callsubr
          -70 hlineto
          -35 -30 rlineto
          endchar
        </CharString>
        <CharString name="lacute">
          -275 9 callsubr
          50 100 hintmask 11010000
          50 hmoveto
          -57 callsubr
          -70 hlineto
          -35 -30 rlineto
          hintmask 00100000
          107 230 -103 callsubr
        </CharString>
        <CharString name="lcaron">
          -162 21 -21 505 -36 callgsubr
          hstemhm
          50 100 70 110 hintmask 01101000
          333 -73 callgsubr
          hintmask 10110000
          -283 -645 rmoveto
          -57 callsubr
          -70 hlineto
          -35 -30 rlineto
          endchar
        </CharString>
        <CharString name="lcommaaccent">
          -277 -245 -36 callgsubr
          91 -65 callsubr
          hstemhm
          39 110 -99 100 hintmask 00110100
          50 hmoveto
          -57 callsubr
          -70 hlineto
          -35 -30 rlineto
          hintmask 11001000
          -142 -775 -105 callgsubr
        </CharString>
        <CharString name="ldot">
          -167 21 -21 290 120 290 -20 hstemhm
          50 100 55 120 hintmask 10110000
          50 hmoveto
          -57 callsubr
          -70 hlineto
          -35 -30 rlineto
          hintmask 01001000
          98 -320 -91 callsubr
          endchar
        </CharString>
        <CharString name="less">
          -57 -56 callgsubr
          65 285 rmoveto
          -13 -70 353 -215 16 95 -252 155 307 155 17 95 rlineto
          endchar
        </CharString>
        <CharString name="logicalnot">
          -67 240 170 -80 80 hstemhm
          315 90 hintmask 10100000
          357 240 rmoveto
          90 hlineto
          -9 callsubr
          rlineto
          -400 hlineto
          hintmask 01100000
          -14 -80 rlineto
          310 hlineto
          endchar
        </CharString>
        <CharString name="lslash">
          -237 -77 callgsubr
          hstemhm
          0 160 -100 100 -100 180 hintmask 11100000
          60 hmoveto
          100 hlineto
          61 349 rlineto
          hintmask 11001000
          93 71 19 110 rlineto
          hintmask 11100000
          -93 -71 43 241 rlineto
          -70 hlineto
          hintmask 11010000
          -35 -30 -52 -291 rlineto
          hintmask 11100000
          -68 -49 -20 -110 rlineto
          hintmask 11010000
          69 49 rlineto
          endchar
        </CharString>
        <CharString name="m">
          278 0 callsubr
          hstemhm
          50 100 180 100 180 100 cntrmask 00011100
          hintmask 11011100
          477 440 rmoveto
          0 -23 70 -95 -85 -62 -70 0 vhcurveto
          -5 hlineto
          hintmask 10111100
          -80 callgsubr
          66 375 rlineto
          hintmask 11011100
          0 55 60 19 callsubr
          67 385 rlineto
          0 54 50 50 45 33 -40 -55 -10 vhcurveto
          -69 callsubr
          -90 hhcurveto
          -90 -72 -70 0 hvcurveto
          endchar
        </CharString>
        <CharString name="macron">
          -217 590 70 hstem
          111 660 -85 callsubr
        </CharString>
        <CharString name="mu">
          23 2 callsubr
          75 -44 -21 500 1 callgsubr
          hintmask 11011100
          14 -200 rmoveto
          70 hlineto
          36 30 33 190 rlineto
          0 30 -30 50 75 65 60 0 vhcurveto
          5 hlineto
          hintmask 10111100
          2 -50 rlineto
          70 hlineto
          -52 callsubr
          -68 -385 rlineto
          hintmask 11011100
          0 -54 -50 -60 -55 -33 40 55 10 vhcurveto
          60 340 -76 callsubr
          endchar
        </CharString>
        <CharString name="multiply">
          -90 178 -21 346 -20 hstem
          337 157 rmoveto
          67 56 -96 117 137 117 -47 56 -136 -116 -97 116 -67 -56 97 -117 -138 -117 47 -56 138 116 rlineto
          endchar
        </CharString>
        <CharString name="n">
          20 callsubr
          hstemhm
          50 100 200 100 hintmask 11011000
          -94 callsubr
          hintmask 10111000
          -80 callgsubr
          66 375 rlineto
          hintmask 11011000
          0 55 60 60 vhcurveto
          endchar
        </CharString>
        <CharString name="nacute">
          20 callsubr
          70 -32 callgsubr
          -25 callgsubr
          hintmask 11001100
          -94 callsubr
          hintmask 10101100
          -80 callgsubr
          66 375 rlineto
          hintmask 11001100
          0 55 60 60 vhcurveto
          hintmask 00010000
          47 265 -103 callsubr
        </CharString>
        <CharString name="ncaron">
          20 callsubr
          101 -21 130 1 callgsubr
          hintmask 11000110
          -94 callsubr
          hintmask 10100110
          -80 callgsubr
          66 375 rlineto
          hintmask 11000110
          0 55 60 60 vhcurveto
          hintmask 00011000
          49 125 -102 callgsubr
        </CharString>
        <CharString name="ncommaaccent">
          18 -27 callsubr
          435 75 -10 -20 hstemhm
          50 100 48 110 42 100 hintmask 00110101
          -94 callsubr
          hintmask 00101101
          -80 callgsubr
          66 375 rlineto
          hintmask 00110101
          0 55 60 60 vhcurveto
          hintmask 11000010
          -146 -500 -105 callgsubr
        </CharString>
        <CharString name="nine">
          8 -10 70 190 70 320 70 hstem
          15 6 callgsubr
          537 470 rmoveto
          160 29 -66 80 -146 hhcurveto
          -134 -94 -80 -160 -29 hvcurveto
          -140 -24 66 -80 130 hhcurveto
          80 57 40 0 hvcurveto
          -170 -30 -71 -60 -85 hhcurveto
          -75 -42 -96 callsubr
          56 -55 115 145 106 90 210 37 vhcurveto
          -205 30 rmoveto
          -8 callgsubr
          100 17 hvcurveto
          120 22 58 50 65 hhcurveto
          75 42 -50 -120 -22 hvcurveto
          -19 -110 rlineto
          0 -47 -40 -70 vhcurveto
          endchar
        </CharString>
        <CharString name="ntilde">
          20 callsubr
          90 -26 callgsubr
          -25 callgsubr
          hintmask 11000011
          -94 callsubr
          hintmask 10100011
          -80 callgsubr
          66 375 rlineto
          hintmask 11000011
          0 55 60 60 vhcurveto
          hintmask 00001000
          127 245 -57 callgsubr
        </CharString>
        <CharString name="numbersign">
          133 0 250 -70 70 200 70 -70 250 hstemhm
          hintmask 10010000
          438 34 callsubr
          hintmask 10100000
          -73 -6 callgsubr
          -119 -58 callgsubr
          103 hlineto
          -81 -200 rlineto
          -117 hlineto
          hintmask 01100000
          -6 callsubr
          101 14 callgsubr
          140 14 callgsubr
          119 -19 callgsubr
          -103 hlineto
          81 200 rlineto
          117 hlineto
          12 70 rlineto
          -101 hlineto
          hintmask 10010000
          73 180 -76 callsubr
          hintmask 10100000
          -73 -6 callgsubr
          -140 hlineto
          hintmask 10010000
          -28 -70 rmoveto
          140 hlineto
          -81 -200 rlineto
          -140 hlineto
          endchar
        </CharString>
        <CharString name="o">
          3 26 callsubr
          -24 callgsubr
          vstem
          -106 callgsubr
          endchar
        </CharString>
        <CharString name="oacute">
          3 -59 callsubr
          40 -32 callgsubr
          -24 callgsubr
          hintmask 11011000
          -106 callgsubr
          hintmask 00100000
          -29 450 -103 callsubr
        </CharString>
        <CharString name="ocircumflex">
          3 -59 callsubr
          71 -56 callsubr
          hstemhm
          -24 callgsubr
          hintmask 11001100
          -106 callgsubr
          hintmask 00110000
          -73 440 -99 callgsubr
        </CharString>
        <CharString name="odieresis">
          3 -59 callsubr
          55 110 hstemhm
          25 100 -30 -34 callsubr
          -25 100 hintmask 11010010
          -106 callgsubr
          hintmask 00101100
          -85 370 -107 callsubr
        </CharString>
        <CharString name="oe">
          293 -72 callgsubr
          hstem
          25 100 220 105 -5 callgsubr
          cntrmask 11100000
          470 430 rmoveto
          45 -27 -44 35 -75 hhcurveto
          -125 -80 callsubr
          125 hhcurveto
          75 54 26 54 46 hvcurveto
          -54 28 57 -26 65 hhcurveto
          100 74 -37 callgsubr
          -24 60 rlineto
          -10 hlineto
          0 -58 -45 -60 -70 -41 50 105 18 vhcurveto
          280 29 callgsubr
          -115 hhcurveto
          -69 -57 -35 -45 -43 hvcurveto
          -225 -370 rmoveto
          -60 -33 callsubr
          hvcurveto
          -51 callgsubr
          60 hhcurveto
          58 41 -48 -132 -21 hvcurveto
          -1 -10 -2 -11 rlineto
          -132 -27 -57 -47 -58 hhcurveto
          382 380 rmoveto
          55 37 -45 -110 -19 hvcurveto
          -200 hlineto
          110 19 53 45 55 hhcurveto
          endchar
        </CharString>
        <CharString name="ogonek">
          -337 -43 callgsubr
          hstemhm
          -15 70 hintmask 10100000
          72 -100 -52 callgsubr
          hintmask 01100000
          -100 callsubr
          hintmask 10100000
          -45 callgsubr
        </CharString>
        <CharString name="ograve">
          3 -59 callsubr
          40 -32 callgsubr
          -24 callgsubr
          hintmask 11011000
          -106 callgsubr
          hintmask 00100000
          -154 450 -89 callsubr
        </CharString>
        <CharString name="ohungarumlaut">
          3 -59 callsubr
          40 -32 callgsubr
          -24 callgsubr
          hintmask 11011000
          -106 callgsubr
          hintmask 00100000
          -99 450 rmoveto
          -50 callsubr
          40 hmoveto
          -50 callsubr
          endchar
        </CharString>
        <CharString name="omacron">
          3 -59 callsubr
          80 70 hstemhm
          -24 callgsubr
          hintmask 11011000
          -106 callgsubr
          hintmask 00100000
          -178 410 -85 callsubr
        </CharString>
        <CharString name="one">
          -137 0 70 630 -20 hstem
          135 100 vstem
          147 70 rmoveto
          -110 -58 callgsubr
          320 hlineto
          12 70 rlineto
          -110 hlineto
          4 callsubr
          -90 hlineto
          -171 -120 30 -55 112 65 rlineto
          endchar
        </CharString>
        <CharString name="onehalf">
          223 0 60 230 60 10 32 callsubr
          240 90 80 90 vstem
          80 hmoveto
          110 hlineto
          593 -64 callgsubr
          -110 hlineto
          -499 -280 -65 callgsubr
          524 -375 rmoveto
          65 11 -41 50 -80 hhcurveto
          -80 -54 -45 0 hvcurveto
          18 -45 rlineto
          10 hlineto
          0 31 30 48 37 16 -20 -35 -6 vhcurveto
          -12 -70 -170 5 -22 -130 -7 -40 rcurveline
          260 hlineto
          10 60 rlineto
          -170 hlineto
          11 36 callsubr
        </CharString>
        <CharString name="onequarter">
          233 21 -21 70 60 230 32 callsubr
          370 90 vstem
          80 hmoveto
          110 hlineto
          593 -64 callgsubr
          -110 hlineto
          -499 -280 -65 callgsubr
          465 -480 rmoveto
          37 210 rlineto
          -90 hlineto
          -207 -210 -10 -60 rlineto
          170 -58 callgsubr
          90 hlineto
          12 70 rlineto
          50 hlineto
          10 60 rlineto
          -141 90 rmoveto
          11 11 16 32 0 vvcurveto
          4 hlineto
          0 -11 -28 -3 -15 vhcurveto
          -16 -90 rlineto
          -90 hlineto
          endchar
        </CharString>
        <CharString name="onesuperior">
          -202 360 32 callsubr
          vstem
          174 420 -65 callgsubr
          endchar
        </CharString>
        <CharString name="ordfeminine">
          -167 350 60 95 60 85 60 hstem
          10 90 110 90 vstem
          309 565 rmoveto
          -45 hlineto
          -110 -53 -45 -65 -11 hvcurveto
          -60 -11 37 -45 76 hhcurveto
          59 39 50 -68 callgsubr
          -1 -40 rlineto
          69 hlineto
          -43 callsubr
          70 12 -41 50 -90 hhcurveto
          -80 -54 -45 0 hvcurveto
          18 -45 rlineto
          10 hlineto
          0 30 30 50 40 21 -9 callgsubr
          vhcurveto
          -27 -150 rmoveto
          0 -30 -30 -35 -30 -17 20 25 5 vhcurveto
          30 5 24 20 45 hhcurveto
          45 hlineto
          endchar
        </CharString>
        <CharString name="ordmasculine">
          -137 350 60 240 60 hstem
          10 90 140 90 vstem
          284 650 0 callgsubr
          -87 callsubr
          endchar
        </CharString>
        <CharString name="oslash">
          3 -30 callgsubr
          440 70 -10 -20 hstemhm
          -24 callgsubr
          hintmask 10011100
          499 7 callsubr
          14 82 -8 62 -25 43 53 63 rcurveline
          -80 hlineto
          -16 -18 rlineto
          hintmask 01101100
          19 -28 -37 9 -43 hhcurveto
          -130 -88 callgsubr
          hvcurveto
          -15 -82 7 -62 26 -43 -52 -63 rcurveline
          80 hlineto
          15 18 rlineto
          hintmask 10101100
          -18 29 36 -10 43 hhcurveto
          130 100 85 175 31 hvcurveto
          -100 hmoveto
          30 callgsubr
          -26 -23 8 18 -15 hvcurveto
          219 261 2 -26 -2 -32 -6 -39 rlinecurve
          -230 hmoveto
          31 callsubr
          26 22 -8 -18 15 hvcurveto
          -218 -261 -2 26 2 32 7 39 rlinecurve
          endchar
        </CharString>
        <CharString name="otilde">
          3 -59 callsubr
          50 -26 callgsubr
          -24 callgsubr
          hintmask 11000110
          -106 callgsubr
          hintmask 00010000
          40 420 -98 callsubr
        </CharString>
        <CharString name="p">
          19 callgsubr
          50 100 210 100 hintmask 11101100
          216 375 rmoveto
          0 55 60 60 55 41 -50 -135 -23 vhcurveto
          30 callgsubr
          -55 -36 20 0 hvcurveto
          -44 -250 rmoveto
          33 190 rlineto
          0 45 -30 60 115 -49 callgsubr
          -95 hhcurveto
          -100 -57 -70 0 hvcurveto
          -5 hlineto
          hintmask 11011100
          1 60 rlineto
          -70 hlineto
          -124 -67 callgsubr
          70 hlineto
          endchar
        </CharString>
        <CharString name="paragraph">
          38 -179 -21 830 70 hstem
          200 90 70 90 vstem
          164 -200 rmoveto
          90 hlineto
          147 830 rlineto
          70 hlineto
          -147 -830 rlineto
          90 hlineto
          147 830 rlineto
          80 hlineto
          12 70 rlineto
          -330 hlineto
          -110 -106 -90 -115 -20 hvcurveto
          -115 -20 74 -90 110 hhcurveto
          endchar
        </CharString>
        <CharString name="parenleft">
          -242 -154 -21 910 -20 hstem
          30 100 vstem
          79 280 rmoveto
          16 callsubr
          35 -170 105 -115 47 40 rcurveline
          -60 115 -27 130 -9 callsubr
          -9 callsubr
          73 130 100 115 -33 40 rcurveline
          -145 -115 -95 -170 16 callsubr
          rrcurveto
          endchar
        </CharString>
        <CharString name="parenright">
          -242 -154 -21 910 -20 hstem
          105 100 vstem
          254 280 rmoveto
          -9 callsubr
          -35 170 -105 115 -47 -40 rcurveline
          60 -115 27 -130 16 callsubr
          16 callsubr
          -73 -130 -99 -115 32 -40 rcurveline
          145 115 95 170 -9 callsubr
          rrcurveto
          endchar
        </CharString>
        <CharString name="percent">
          273 15 callgsubr
          5 90 140 90 100 90 140 90 hintmask 0110011111000000
          85 hmoveto
          110 hlineto
          593 -64 callgsubr
          -110 hlineto
          hintmask 1001101111000000
          -399 -50 0 callgsubr
          -87 callsubr
          hintmask 1010101111000000
          346 -420 rmoveto
          40 24 -30 -8 callsubr
          -86 callgsubr
          endchar
        </CharString>
        <CharString name="period">
          -327 -10 27 callsubr
          vstem
          23 -28 callsubr
          endchar
        </CharString>
        <CharString name="periodcentered">
          -237 290 120 hstem
          60 120 vstem
          121 350 -91 callsubr
          endchar
        </CharString>
        <CharString name="perthousand">
          604 15 callgsubr
          -5 90 140 90 100 90 140 90 31 90 140 90 hintmask 0110011111110000
          75 hmoveto
          110 hlineto
          593 -64 callgsubr
          -110 hlineto
          -42 -410 rmoveto
          40 24 -30 -8 callsubr
          hintmask 1010101111110000
          -86 callgsubr
          341 -60 rmoveto
          40 24 -30 -8 callsubr
          -86 callgsubr
          -718 300 0 callgsubr
          hintmask 1001101111110000
          -87 callsubr
          endchar
        </CharString>
        <CharString name="plus">
          -57 146 -21 165 80 165 -20 hstem
          170 80 vstem
          192 125 rmoveto
          80 hlineto
          29 165 -35 callgsubr
          endchar
        </CharString>
        <CharString name="plusminus">
          -37 95 80 135 80 165 -20 hstem
          180 80 vstem
          441 95 12 callgsubr
          -165 hlineto
          24 135 -35 callgsubr
          -24 -135 rlineto
          -165 -31 callsubr
          endchar
        </CharString>
        <CharString name="q">
          19 callgsubr
          25 100 210 100 hintmask 11101100
          -76 callgsubr
          -72 -575 rmoveto
          70 hlineto
          hintmask 11011100
          124 -64 callgsubr
          1 callsubr
          hintmask 11101100
          0 -33 70 -100 -95 -88 callgsubr
          vhcurveto
          -88 callsubr
          115 hhcurveto
          60 55 30 0 hvcurveto
          -33 -190 rlineto
          endchar
        </CharString>
        <CharString name="question">
          -67 -10 120 530 70 hstemhm
          96 120 -105 90 94 100 hintmask 11101000
          104 -28 callsubr
          hintmask 11011000
          135 170 rmoveto
          23 130 194 0 -9 callsubr
          rrcurveto
          -35 callsubr
          -25 -140 -184 0 16 callsubr
          -7 -40 rcurveline
          90 hlineto
          endchar
        </CharString>
        <CharString name="questiondown">
          -67 -210 70 530 120 hstemhm
          15 100 79 120 -105 90 hintmask 11110000
          393 450 -95 callsubr
          hintmask 11101000
          -135 -170 rmoveto
          -23 -130 -194 0 16 callsubr
          rrcurveto
          -110 -19 65 -80 145 hhcurveto
          130 75 -37 callgsubr
          -24 60 rlineto
          -10 hlineto
          0 -58 -45 -90 -85 -41 50 60 10 vhcurveto
          25 140 184 0 -9 callsubr
          7 40 rcurveline
          -90 hlineto
          endchar
        </CharString>
        <CharString name="quotedbl">
          -187 -5 callsubr
          133 -240 rmoveto
          65 hlineto
          62 240 rlineto
          -105 hlineto
          endchar
        </CharString>
        <CharString name="quotedblbase">
          -167 -109 -21 120 27 callsubr
          40 -77 callsubr
          160 hmoveto
          21 callsubr
          24 -35 rlineto
          0 99 55 21 115 vhcurveto
          45 7 -67 callsubr
          endchar
        </CharString>
        <CharString name="quotedblleft">
          -167 470 120 120 -20 hstem
          15 120 40 120 vstem
          388 530 rmoveto
          -71 callsubr
          -160 hmoveto
          -71 callsubr
          endchar
        </CharString>
        <CharString name="quotedblright">
          -167 491 -21 120 27 callsubr
          40 120 vstem
          129 650 rmoveto
          21 callsubr
          23 -35 rlineto
          0 100 55 20 115 vhcurveto
          45 8 -67 callsubr
          160 hmoveto
          21 callsubr
          23 -35 rlineto
          0 100 55 20 115 vhcurveto
          45 8 -67 callsubr
          endchar
        </CharString>
        <CharString name="quoteleft">
          -327 491 -21 240 -20 hstem
          15 120 vstem
          228 530 rmoveto
          -71 callsubr
          endchar
        </CharString>
        <CharString name="quoteright">
          -327 491 -21 240 -20 hstem
          15 120 vstem
          129 650 rmoveto
          21 callsubr
          23 -35 rlineto
          0 100 55 20 115 vhcurveto
          45 8 -67 callsubr
          endchar
        </CharString>
        <CharString name="quotesinglbase">
          -327 -109 -21 141 -21 120 -20 hstem
          15 -77 callsubr
          endchar
        </CharString>
        <CharString name="quotesingle">
          -342 -5 callsubr
          endchar
        </CharString>
        <CharString name="r">
          -162 -2 callsubr
          80 -10 -20 hstemhm
          50 100 hintmask 11010000
          -39 callgsubr
          hintmask 10110000
          29 80 rlineto
          hintmask 11010000
          -34 callgsubr
          hintmask 10110000
          -80 callgsubr
          65 370 rlineto
          hintmask 11010000
          0 55 60 55 vhcurveto
          endchar
        </CharString>
        <CharString name="racute">
          -162 -2 callsubr
          80 -10 -20 70 -32 callgsubr
          50 100 hintmask 11001000
          -39 callgsubr
          hintmask 10101000
          29 80 rlineto
          hintmask 11001000
          -34 callgsubr
          hintmask 10101000
          -80 callgsubr
          65 370 rlineto
          hintmask 11001000
          0 55 60 55 vhcurveto
          hintmask 00010000
          -10 270 -103 callsubr
        </CharString>
        <CharString name="rcaron">
          -147 -2 callsubr
          80 -10 -20 101 -56 callsubr
          hstemhm
          50 100 hintmask 11000100
          -39 callgsubr
          hintmask 10100100
          29 80 rlineto
          hintmask 11000100
          -34 callgsubr
          hintmask 10100100
          -80 callgsubr
          65 370 rlineto
          hintmask 11000100
          0 55 60 55 vhcurveto
          hintmask 00011000
          13 130 -102 callgsubr
        </CharString>
        <CharString name="rcommaaccent">
          -162 -245 -36 callgsubr
          91 -21 430 80 -10 -20 hstemhm
          39 110 -99 100 hintmask 00110010
          -39 callgsubr
          hintmask 00101010
          29 80 rlineto
          hintmask 00110010
          -34 callgsubr
          hintmask 00101010
          -80 callgsubr
          65 370 rlineto
          hintmask 00110010
          0 55 60 55 vhcurveto
          hintmask 11000100
          -299 -535 -105 callgsubr
        </CharString>
        <CharString name="registered">
          333 -30 70 95 215 -65 65 150 65 95 70 hstemhm
          15 90 150 90 146 90 124 90 hintmask 1101111110000000
          -82 callgsubr
          -167 -95 rmoveto
          -76 -430 rlineto
          90 hlineto
          hintmask 1011111110000000
          27 150 rlineto
          61 hlineto
          hintmask 1101111110000000
          63 13 callsubr
          95 hlineto
          -71 165 53 15 48 45 11 65 rlinecurve
          85 15 -45 55 -125 hhcurveto
          -11 -65 rmoveto
          65 20 -25 -50 -9 hvcurveto
          -50 -8 -30 -25 -65 hhcurveto
          -56 hlineto
          27 150 rlineto
          endchar
        </CharString>
        <CharString name="ring">
          -307 540 50 90 50 hstem
          -15 60 80 60 vstem
          204 680 -99 callsubr
        </CharString>
        <CharString name="s">
          -67 26 callsubr
          20 100 180 100 vstem
          193 -10 rmoveto
          145 70 60 90 16 hvcurveto
          -9 callsubr
          -288 -45 20 110 rrcurveto
          35 6 35 30 70 hhcurveto
          70 -100 callgsubr
          -56 55 -110 -130 -70 -60 -85 -15 vhcurveto
          16 callsubr
          288 45 -20 -110 rrcurveto
          -40 -7 -35 -30 -85 hhcurveto
          -80 -42 -96 callsubr
          56 -55 120 vhcurveto
          endchar
        </CharString>
        <CharString name="sacute">
          -67 -59 callsubr
          40 -32 callgsubr
          20 100 180 100 hintmask 11011000
          193 -10 rmoveto
          145 70 60 90 16 hvcurveto
          -9 callsubr
          -288 -45 20 110 rrcurveto
          35 6 35 30 70 hhcurveto
          70 -100 callgsubr
          -56 55 -110 -130 -70 -60 -85 -15 vhcurveto
          16 callsubr
          288 45 -20 -110 rrcurveto
          -40 -7 -35 -30 -85 hhcurveto
          -80 -42 -96 callsubr
          56 -55 120 vhcurveto
          hintmask 00100000
          132 710 -103 callsubr
        </CharString>
        <CharString name="scaron">
          -67 -59 callsubr
          71 -56 callsubr
          hstemhm
          20 100 180 100 hintmask 11001100
          193 -10 rmoveto
          145 70 60 90 16 hvcurveto
          -9 callsubr
          -288 -45 20 110 rrcurveto
          35 6 35 30 70 hhcurveto
          70 -100 callgsubr
          -56 55 -110 -130 -70 -60 -85 -15 vhcurveto
          16 callsubr
          288 45 -20 -110 rrcurveto
          -40 -7 -35 -30 -85 hhcurveto
          -80 -42 -96 callsubr
          56 -55 120 vhcurveto
          hintmask 00110000
          145 570 -102 callgsubr
        </CharString>
        <CharString name="scedilla">
          -67 -28 callgsubr
          -30 -48 callsubr
          hstemhm
          20 100 42 150 -65 65 -12 100 hintmask 0001110010000000
          193 -10 rmoveto
          145 70 60 90 16 hvcurveto
          -9 callsubr
          -288 -45 20 110 rrcurveto
          35 6 35 30 70 hhcurveto
          70 -100 callgsubr
          -56 55 -110 -130 -70 -60 -85 -15 vhcurveto
          16 callsubr
          288 45 -20 -110 rrcurveto
          -40 -7 -35 -30 -85 hhcurveto
          -80 -42 -96 callsubr
          56 -55 120 vhcurveto
          hintmask 1010001000000000
          32 30 -39 callsubr
          hintmask 1100000100000000
          -63 callsubr
          hintmask 1100001000000000
          -93 callsubr
        </CharString>
        <CharString name="scommaaccent">
          -67 -250 -36 callgsubr
          65 -48 callsubr
          hstemhm
          20 100 33 110 37 100 hintmask 00111010
          193 -10 rmoveto
          145 70 60 90 16 hvcurveto
          -9 callsubr
          -288 -45 20 110 rrcurveto
          35 6 35 30 70 hhcurveto
          70 -100 callgsubr
          -56 55 -110 -130 -70 -60 -85 -15 vhcurveto
          16 callsubr
          288 45 -20 -110 rrcurveto
          -40 -7 -35 -30 -85 hhcurveto
          -80 -42 -96 callsubr
          56 -55 120 vhcurveto
          hintmask 11000100
          -53 -100 -105 callgsubr
        </CharString>
        <CharString name="section">
          -210 70 780 70 hstemhm
          30 100 -5 callgsubr
          -85 85 hintmask 11110000
          177 -210 rmoveto
          145 83 70 110 19 hvcurveto
          10 58 -19 37 -32 27 53 31 34 51 12 66 37 210 -318 -45 25 140 rrcurveto
          55 9 47 40 80 hhcurveto
          70 -96 callgsubr
          -110 -140 -83 -70 -105 -18 vhcurveto
          -11 -59 21 -38 33 -27 -54 -30 -35 -52 -12 -64 -37 -210 318 45 -25 -140 rrcurveto
          -60 -10 -47 -40 -85 hhcurveto
          -80 -42 -96 callsubr
          55 -55 120 vhcurveto
          72 575 rmoveto
          hintmask 11101000
          75 -25 74 -35 -13 -75 -7 -40 -31 -35 -43 -15 -75 25 -74 35 13 75 7 40 31 35 43 15 rrcurveto
          endchar
        </CharString>
        <CharString name="semicolon">
          -327 -109 -21 141 -21 400 27 callsubr
          vstem
          94 450 -74 callsubr
          -71 -400 rmoveto
          21 callsubr
          24 -35 rlineto
          0 99 55 21 115 vhcurveto
          45 7 -67 callsubr
          endchar
        </CharString>
        <CharString name="seven">
          -87 4 callgsubr
          hstem
          115 100 vstem
          115 hmoveto
          100 hlineto
          15 90 41 230 135 200 110 110 rlinecurve
          12 70 2 callgsubr
          320 hlineto
          -110 -110 -125 -200 -41 -230 rrcurveto
          endchar
        </CharString>
        <CharString name="six">
          8 -10 70 320 70 190 70 hstem
          30 6 callgsubr
          70 230 rmoveto
          -160 -28 66 -80 146 hhcurveto
          134 94 80 160 28 -3 callgsubr
          -130 hhcurveto
          -80 -57 -40 0 hvcurveto
          170 30 70 60 85 hhcurveto
          75 -96 callgsubr
          -115 -145 -106 -90 -210 -37 vhcurveto
          205 -30 rmoveto
          80 -33 callgsubr
          -120 -21 -59 -50 -65 hhcurveto
          -75 -41 50 120 21 hvcurveto
          19 110 rlineto
          0 48 40 70 vhcurveto
          endchar
        </CharString>
        <CharString name="slash">
          -117 -77 callgsubr
          hstem
          -25 hmoveto
          100 hlineto
          433 700 -76 callsubr
          endchar
        </CharString>
        <CharString name="space">
          -237 endchar
        </CharString>
        <CharString name="sterling">
          -52 0 -46 callgsubr
          240 70 hstemhm
          10 165 -100 100 hintmask 11101000
          375 710 rmoveto
          -100 -89 -75 -95 -16 hvcurveto
          -25 -140 rlineto
          hintmask 11110000
          -65 -58 callgsubr
          hintmask 11101000
          65 -31 callsubr
          -29 -160 -78 -20 0 vvcurveto
          -12 -70 rlineto
          440 hlineto
          12 70 rlineto
          -335 hlineto
          0 75 30 27 150 vhcurveto
          14 80 rlineto
          135 hlineto
          12 70 rlineto
          -135 hlineto
          25 140 rlineto
          60 10 47 40 45 hhcurveto
          70 32 -45 0 hvcurveto
          10 hlineto
          46 60 rlineto
          0 -45 55 -110 vhcurveto
          endchar
        </CharString>
        <CharString name="t">
          -127 -10 70 370 70 120 -20 hstem
          70 100 vstem
          245 430 rmoveto
          125 -19 callgsubr
          -125 hlineto
          21 120 rlineto
          -45 hlineto
          -153 -130 -11 -60 rlineto
          75 hlineto
          -49 -280 rlineto
          -95 -17 54 -65 100 hhcurveto
          80 69 50 0 hvcurveto
          -25 60 rlineto
          -10 hlineto
          0 -47 -40 -45 -45 -25 30 60 11 vhcurveto
          endchar
        </CharString>
        <CharString name="tcaron">
          -47 -10 70 365 -21 26 70 10 -20 -7 callsubr
          hstemhm
          70 100 165 110 hintmask 01011010
          434 565 rmoveto
          -30 -5 20 -25 25 hhcurveto
          -7 -40 -56 -7 callgsubr
          25 -31 rlineto
          0 88 46 19 106 vhcurveto
          39 6 -20 25 -35 hhcurveto
          -25 -30 -25 -30 -5 hvcurveto
          hintmask 10101100
          -189 -135 rmoveto
          125 -19 callgsubr
          -125 hlineto
          21 120 rlineto
          -45 hlineto
          -153 -130 -11 -60 rlineto
          75 hlineto
          -49 -280 rlineto
          -95 -17 54 -65 100 hhcurveto
          80 69 50 0 hvcurveto
          -25 60 rlineto
          -10 hlineto
          0 -47 -40 -45 -45 -25 30 60 11 vhcurveto
          endchar
        </CharString>
        <CharString name="tcommaaccent">
          -127 -255 -36 callgsubr
          70 70 370 70 120 -20 hstemhm
          70 100 -13 110 hintmask 00111100
          245 430 rmoveto
          125 -19 callgsubr
          -125 hlineto
          21 120 rlineto
          -45 hlineto
          -153 -130 -11 -60 rlineto
          75 hlineto
          -49 -280 rlineto
          -95 -17 54 -65 100 hhcurveto
          80 69 50 0 hvcurveto
          -25 60 rlineto
          -10 hlineto
          0 -47 -40 -45 -45 -25 30 60 11 vhcurveto
          hintmask 11000010
          -52 -265 -105 callgsubr
        </CharString>
        <CharString name="thorn">
          13 2 callsubr
          -48 callsubr
          190 -20 hstem
          55 100 210 100 vstem
          409 7 callsubr
          30 callgsubr
          -55 -36 20 0 hvcurveto
          60 340 rlineto
          0 43 20 55 65 41 -50 -140 -24 vhcurveto
          -131 450 rmoveto
          -70 hlineto
          -35 -30 -154 -870 -79 callsubr
          39 220 rlineto
          0 45 -30 60 115 -49 callgsubr
          -115 hhcurveto
          -60 -55 -30 0 hvcurveto
          endchar
        </CharString>
        <CharString name="three">
          -27 -10 70 280 70 220 70 hstem
          335 100 vstem
          116 630 rmoveto
          290 hlineto
          -264 -220 -6 callsubr
          105 hlineto
          110 42 -50 -8 callsubr
          -90 -16 -59 -50 -110 hhcurveto
          -90 -42 -96 callsubr
          56 -55 130 170 94 80 130 23 vhcurveto
          130 23 -66 80 -165 hhcurveto
          264 220 12 70 rlineto
          -410 hlineto
          endchar
        </CharString>
        <CharString name="threequarters">
          223 21 -21 70 60 220 60 100 60 70 60 hstem
          186 90 274 90 vstem
          70 hmoveto
          110 hlineto
          593 -64 callgsubr
          -110 hlineto
          -1 -570 rmoveto
          37 210 rlineto
          -90 hlineto
          -207 -210 -10 -60 rlineto
          170 -58 callgsubr
          90 hlineto
          12 70 rlineto
          50 hlineto
          10 60 rlineto
          -141 90 rmoveto
          11 11 16 32 0 vvcurveto
          4 hlineto
          0 -11 -28 -3 -15 vhcurveto
          -16 -90 rlineto
          -90 hlineto
          -125 330 rmoveto
          65 11 -38 45 -80 hhcurveto
          121 65 12 65 rlineto
          -234 hlineto
          -11 -60 rlineto
          144 hlineto
          -134 -80 -9 -50 rlineto
          66 hlineto
          50 17 -20 -30 -5 hvcurveto
          -30 -6 -23 -20 -45 hhcurveto
          -50 -20 30 -84 callsubr
          -34 -45 rlineto
          0 38 -45 80 90 59 50 60 11 vhcurveto
          endchar
        </CharString>
        <CharString name="threesuperior">
          -206 350 60 100 60 70 60 hstem
          171 90 vstem
          342 460 rmoveto
          65 11 -38 45 -80 hhcurveto
          121 65 12 65 rlineto
          -234 hlineto
          -11 -60 rlineto
          144 hlineto
          -134 -80 -9 -50 rlineto
          66 hlineto
          50 17 -20 -30 -5 hvcurveto
          -30 -6 -23 -20 -45 hhcurveto
          -50 -20 30 -84 callsubr
          -34 -45 rlineto
          0 38 -45 80 90 59 50 60 11 vhcurveto
          endchar
        </CharString>
        <CharString name="tilde">
          -232 580 -26 callgsubr
          hintmask 01000000
          332 690 rmoveto
          1 -24 -40 -30 hhcurveto
          hintmask 00100000
          -30 -2 45 -50 hhcurveto
          -50 -32 -40 -45 -23 hvcurveto
          36 -25 rlineto
          9 hlineto
          -1 24 40 30 hhcurveto
          hintmask 10000000
          30 2 -45 50 hhcurveto
          50 32 40 45 23 hvcurveto
          -36 25 rlineto
          endchar
        </CharString>
        <CharString name="trademark">
          323 341 -21 315 65 hstem
          105 90 160 90 250 90 vstem
          438 6 callsubr
          -330 hlineto
          -12 -65 rlineto
          120 hlineto
          -55 -315 rlineto
          90 hlineto
          55 315 rlineto
          120 hlineto
          223 -170 rmoveto
          0 -1 20 -5 15 vhcurveto
          -70 200 rlineto
          -95 hlineto
          -67 -380 rlineto
          90 hlineto
          32 180 rlineto
          4 25 2 30 0 vvcurveto
          5 hlineto
          0 5 -31 9 -24 vhcurveto
          39 -115 rlineto
          80 hlineto
          81 115 rlineto
          17 24 15 31 0 vvcurveto
          5 hlineto
          0 -8 -30 -4 -25 vhcurveto
          -32 -6 callgsubr
          90 hlineto
          67 380 rlineto
          -95 hlineto
          -140 -200 rlineto
          -11 -15 -9 -20 0 vvcurveto
          endchar
        </CharString>
        <CharString name="two">
          -27 0 70 570 70 hstem
          5 100 225 100 vstem
          521 520 rmoveto
          -35 callsubr
          16 callsubr
          -341 -90 -35 -200 -12 -70 rcurveline
          425 hlineto
          12 70 rlineto
          -325 hlineto
          25 140 344 110 35 200 rrcurveto
          endchar
        </CharString>
        <CharString name="twosuperior">
          -197 360 60 230 60 hstem
          10 90 80 90 vstem
          374 595 rmoveto
          65 12 -41 50 -80 hhcurveto
          -80 -54 -45 0 hvcurveto
          18 -45 rlineto
          10 hlineto
          0 30 30 48 37 17 -20 -35 -7 vhcurveto
          -12 -70 -169 5 -23 -130 -7 -40 rcurveline
          260 hlineto
          11 60 rlineto
          -170 hlineto
          10 36 callsubr
        </CharString>
        <CharString name="u">
          -54 callsubr
          hstemhm
          50 100 200 100 hintmask 10111000
          -101 callsubr
          hintmask 01111000
          -83 callgsubr
          hintmask 10111000
          0 -56 -60 -60 vhcurveto
          endchar
        </CharString>
        <CharString name="uacute">
          -54 callsubr
          60 -32 callgsubr
          -25 callgsubr
          hintmask 10101100
          -101 callsubr
          hintmask 01101100
          -83 callgsubr
          hintmask 10101100
          0 -56 -60 -60 vhcurveto
          hintmask 00010000
          122 625 -103 callsubr
        </CharString>
        <CharString name="ucircumflex">
          -54 callsubr
          101 -21 130 1 callgsubr
          hintmask 10100110
          -101 callsubr
          hintmask 01100110
          -83 callgsubr
          hintmask 10100110
          0 -56 -60 -60 vhcurveto
          hintmask 00011000
          80 625 -99 callgsubr
        </CharString>
        <CharString name="udieresis">
          -54 callsubr
          85 110 hstemhm
          50 100 -45 -34 callsubr
          -40 100 hintmask 10101001
          -101 callsubr
          hintmask 01101001
          -83 callgsubr
          hintmask 10101001
          0 -56 -60 -60 vhcurveto
          hintmask 00010110
          68 555 -107 callsubr
        </CharString>
        <CharString name="ugrave">
          -54 callsubr
          60 -32 callgsubr
          -25 callgsubr
          hintmask 10101100
          -101 callsubr
          hintmask 01101100
          -83 callgsubr
          hintmask 10101100
          0 -56 -60 -60 vhcurveto
          hintmask 00010000
          7 625 -89 callsubr
        </CharString>
        <CharString name="uhungarumlaut">
          -54 callsubr
          60 -32 callgsubr
          -25 callgsubr
          hintmask 10101100
          -101 callsubr
          hintmask 01101100
          -83 callgsubr
          hintmask 10101100
          0 -56 -60 -60 vhcurveto
          hintmask 00010000
          62 625 rmoveto
          -50 callsubr
          40 hmoveto
          -50 callsubr
          endchar
        </CharString>
        <CharString name="umacron">
          -54 callsubr
          100 70 hstemhm
          -25 callgsubr
          hintmask 10101100
          -101 callsubr
          hintmask 01101100
          -83 callgsubr
          hintmask 10101100
          0 -56 -60 -60 vhcurveto
          hintmask 00010000
          -27 585 -85 callsubr
        </CharString>
        <CharString name="underscore">
          -147 -130 80 hstem
          332 -130 12 callgsubr
          -379 -31 callsubr
          endchar
        </CharString>
        <CharString name="uni00AD">
          -13 callsubr
        </CharString>
        <CharString name="uogonek">
          18 -43 callgsubr
          -47 callgsubr
          hstemhm
          50 100 185 70 -55 100 hintmask 00101101
          -101 callsubr
          hintmask 00011101
          -83 callgsubr
          hintmask 00101101
          0 -56 -60 -60 vhcurveto
          hintmask 10000010
          166 -165 -52 callgsubr
          hintmask 01000010
          -100 callsubr
          hintmask 10000010
          -45 callgsubr
        </CharString>
        <CharString name="uring">
          -54 callsubr
          70 50 90 50 hstemhm
          50 100 1 60 80 60 -1 100 hintmask 1010010010000000
          -101 callsubr
          hintmask 0110010010000000
          -83 callgsubr
          hintmask 1010010010000000
          0 -56 -60 -60 vhcurveto
          hintmask 0001101100000000
          114 625 -99 callsubr
        </CharString>
        <CharString name="v">
          -57 -56 callgsubr
          270 hmoveto
          248 500 -76 callsubr
          -164 -330 rlineto
          -15 -30 -10 -40 -87 callgsubr
          4 40 -5 30 vhcurveto
          -46 3 callgsubr
          72 -12 callsubr
          endchar
        </CharString>
        <CharString name="w">
          183 -56 callgsubr
          358 500 rmoveto
          -134 -305 rlineto
          -13 -30 -10 -35 -87 callgsubr
          5 35 -3 30 vhcurveto
          -26 305 rlineto
          -95 hlineto
          42 -500 -1 callgsubr
          140 315 rlineto
          11 25 14 45 0 vvcurveto
          4 hlineto
          0 -2 -45 3 -25 vhcurveto
          30 -315 -1 callgsubr
          218 -36 callsubr
          -95 hlineto
          -134 -305 rlineto
          -13 -30 -9 -35 -87 callgsubr
          4 35 -3 30 vhcurveto
          -26 305 rlineto
          endchar
        </CharString>
        <CharString name="x">
          -81 callsubr
        </CharString>
        <CharString name="y">
          -52 -210 70 161 -3 callsubr
          hstem
          75 -140 rmoveto
          -30 -21 25 -84 callsubr
          -36 -65 rlineto
          0 34 -30 60 85 69 60 80 36 vhcurveto
          261 570 -76 callsubr
          -150 -330 rlineto
          -13 -30 -20 -50 -87 callgsubr
          -2 50 -5 30 vhcurveto
          -51 3 callgsubr
          77 -12 callsubr
          40 hlineto
          -33 -70 rlineto
          -40 -18 -34 -30 -35 hhcurveto
          endchar
        </CharString>
        <CharString name="yacute">
          -52 -210 70 161 -3 callsubr
          60 -32 callgsubr
          hintmask 11100000
          75 -140 rmoveto
          -30 -21 25 -84 callsubr
          -36 -65 rlineto
          0 34 -30 60 85 69 60 80 36 vhcurveto
          261 570 -76 callsubr
          -150 -330 rlineto
          -13 -30 -20 -50 -87 callgsubr
          -2 50 -5 30 vhcurveto
          -51 3 callgsubr
          77 -12 callsubr
          40 hlineto
          -33 -70 rlineto
          -40 -18 -34 -30 -35 hhcurveto
          hintmask 00010000
          266 830 -103 callsubr
        </CharString>
        <CharString name="ydieresis">
          -52 -210 70 161 -3 callsubr
          85 110 hstemhm
          67 -34 callsubr
          hintmask 11100000
          75 -140 rmoveto
          -30 -21 25 -84 callsubr
          -36 -65 rlineto
          0 34 -30 60 85 69 60 80 36 vhcurveto
          261 570 -76 callsubr
          -150 -330 rlineto
          -13 -30 -20 -50 -87 callgsubr
          -2 50 -5 30 vhcurveto
          -51 3 callgsubr
          77 -12 callsubr
          40 hlineto
          -33 -70 rlineto
          -40 -18 -34 -30 -35 hhcurveto
          hintmask 00011100
          211 760 -107 callsubr
        </CharString>
        <CharString name="yen">
          3 21 -21 180 70 55 70 325 -20 hstem
          190 100 vstem
          471 180 rmoveto
          13 70 rlineto
          -141 hlineto
          34 55 rlineto
          116 -19 callgsubr
          -84 hlineto
          206 325 rlineto
          -105 hlineto
          -194 -305 rlineto
          -15 -25 -13 -35 -87 callgsubr
          -1 35 -7 25 vhcurveto
          -86 305 rlineto
          -105 hlineto
          92 -325 rlineto
          -84 -14 callsubr
          116 hlineto
          16 -55 rlineto
          -141 -14 callsubr
          150 hlineto
          -31 -180 -79 callsubr
          31 180 rlineto
          endchar
        </CharString>
        <CharString name="z">
          27 callgsubr
          hstem
          -69 callgsubr
          endchar
        </CharString>
        <CharString name="zacute">
          27 callgsubr
          50 -32 callgsubr
          -44 callsubr
          hintmask 00100000
          305 700 -103 callsubr
        </CharString>
        <CharString name="zcaron">
          27 callgsubr
          81 -56 callsubr
          hstemhm
          -47 callsubr
          318 560 -102 callgsubr
        </CharString>
        <CharString name="zdotaccent">
          27 callgsubr
          60 120 hstemhm
          135 120 -47 callsubr
          354 620 -95 callsubr
          endchar
        </CharString>
        <CharString name="zero">
          53 -60 callsubr
          hstem
          30 100 270 100 vstem
          461 350 rmoveto
          -230 -40 -71 -60 -75 hhcurveto
          -75 -49 60 230 40 hvcurveto
          230 41 70 60 75 hhcurveto
          75 50 -60 -230 -41 hvcurveto
          -370 hmoveto
          -260 -46 83 -100 135 -4 callgsubr
          -135 -118 -100 -260 -46 hvcurveto
          endchar
        </CharString>
      <CharString index="0">
        319 510 rmoveto
        -120 -80 callsubr
        135 hhcurveto
        100 74 -37 callgsubr
        -24 60 rlineto
        -10 hlineto
        0 -58 -45 -60 -8 callgsubr
        105 18 vhcurveto
        290 29 callgsubr
        -120 -38 callsubr
        60 37 -45 -110 -19 hvcurveto
        -210 hlineto
        110 19 53 45 60 hhcurveto
        return
      </CharString>
      <CharString index="1">
        499 7 callsubr
        175 30 -70 85 -130 hhcurveto
        -130 -80 callsubr
        130 hhcurveto
        130 100 85 175 31 hvcurveto
        -100 hmoveto
        30 callgsubr
        -65 -33 callsubr
        hvcurveto
        31 callsubr
        65 41 -50 -140 -24 hvcurveto
        return
      </CharString>
      <CharString index="2">
        rmoveto
        -30 -5 20 -25 25 hhcurveto
        -7 -40 -56 -7 callgsubr
        25 -31 rlineto
        0 87 46 19 106 vhcurveto
        39 -59 callgsubr
        -25 -29 -25 -30 -5 hvcurveto
        endchar
      </CharString>
      <CharString index="3">
        355 710 rmoveto
        -130 -94 -80 11 callgsubr
        -39 -220 332 40 -28 -160 rrcurveto
        -70 -12 -59 -50 -90 hhcurveto
        -90 -52 -96 callsubr
        66 -55 130 150 94 80 120 21 vhcurveto
        39 220 -332 -40 28 160 rrcurveto
        60 11 58 50 70 hhcurveto
        90 -96 callgsubr
        -130 vhcurveto
        return
      </CharString>
      <CharString index="4">
        -60 70 vlineto
        -30 callsubr
        110 19 -66 80 -115 hhcurveto
        -100 -74 -55 0 hvcurveto
        24 -60 rlineto
        10 hlineto
        0 58 45 60 65 33 -40 -80 -14 vhcurveto
        -34 -195 rmoveto
        return
      </CharString>
      <CharString index="5">
        rmoveto
        128 130 -51 callsubr
        -86 -65 -64 65 -51 callsubr
        82 13 callgsubr
        endchar
      </CharString>
      <CharString index="6">
        367 295 rmoveto
        -80 hlineto
        -155 -71 -60 -8 callsubr
        -95 -17 50 -60 105 -72 callsubr
        return
      </CharString>
      <CharString index="7">
        42 -45 0 hvcurveto
        10 hlineto
        46 60 rlineto
        0 return
      </CharString>
      <CharString index="8">
        rmoveto
        -128 -130 -71 callgsubr
        87 65 63 -65 -71 callgsubr
        -82 130 rlineto
        endchar
      </CharString>
      <CharString index="9">
        290 260 rmoveto
        110 -260 -20 callsubr
        -119 275 97 30 58 70 18 105 rlinecurve
        -41 callgsubr
        -66 80 -170 hhcurveto
        -170 -75 callsubr
        45 -13 callgsubr
        13 70 rmoveto
        53 300 rlineto
        70 hlineto
        100 -18 callsubr
        -100 hhcurveto
        return
      </CharString>
      <CharString index="10">
        35 7 -92 callsubr
        -7 hvcurveto
        10 callsubr
        35 hhcurveto
        35 29 -31 callgsubr
        return
      </CharString>
      <CharString index="11">
        -100 callgsubr
        -55 55 return
      </CharString>
      <CharString index="12">
        -123 -67 callgsubr
        return
      </CharString>
      <CharString index="13">
        hlineto
        123 700 -76 callsubr
        return
      </CharString>
      <CharString index="14">
        115 hlineto
        -40 -230 rlineto
        1 -39 -21 -40 -100 -58 70 220 39 vhcurveto
        220 39 82 70 90 hhcurveto
        70 -96 callgsubr
        -110 -140 -130 -110 -250 -44 vhcurveto
        -250 -44 91 -110 150 hhcurveto
        115 79 -37 callgsubr
        return
      </CharString>
      <CharString index="15">
        20 50 9 hvcurveto
        -90 hlineto
        -80 -14 41 -50 100 hhcurveto
        100 59 50 80 14 hvcurveto
        -90 hlineto
        return
      </CharString>
      <CharString index="16">
        48 -78 callsubr
        17 callgsubr
        210 100 -75 75 -75 100 hintmask 11111000
        425 370 rmoveto
        0 119 25 23 130 vhcurveto
        100 18 -62 75 -145 hhcurveto
        -190 hlineto
        -95 callgsubr
        190 hlineto
        hintmask 11110010
        170 88 75 7 callgsubr
        hvcurveto
        27 155 -135 25 0 vvcurveto
        -149 260 rmoveto
        90 hlineto
        hintmask 11111000
        75 37 -45 -70 -13 hvcurveto
        -70 -12 -53 -45 -75 hhcurveto
        -90 hlineto
        78 -70 rmoveto
        hintmask 11110100
        100 37 -45 -85 -15 hvcurveto
        -85 -15 -53 -45 -100 hhcurveto
        -90 hlineto
        -42 callsubr
        endchar
      </CharString>
      <CharString index="17">
        500 rmoveto
        -23 callgsubr
        100 hlineto
        -66 callsubr
        return
      </CharString>
      <CharString index="18">
        0 -33 70 -100 -95 -88 callgsubr
        vhcurveto
        -88 callsubr
        115 hhcurveto
        60 55 30 0 hvcurveto
        -5 -30 rlineto
        -90 -16 -47 -40 -85 -17 callsubr
        55 -55 100 135 95 80 120 21 vhcurveto
        return
      </CharString>
      <CharString index="19">
        -100 -85 -175 -30 return
      </CharString>
      <CharString index="20">
        0 vvcurveto
        -4 hlineto
        0 return
      </CharString>
      <CharString index="21">
        -90 -15 -36 -30 -40 hhcurveto
        -40 -24 30 90 15 hvcurveto
        90 16 36 30 40 hhcurveto
        10 60 rmoveto
        -95 -76 -65 -115 -21 hvcurveto
        -115 -20 54 -65 95 hhcurveto
        95 76 65 7 callgsubr
        hvcurveto
        115 21 -54 65 -95 hhcurveto
        return
      </CharString>
      <CharString index="22">
        33 21 -21 375 75 70 70 110 -14 callgsubr
        -5 callgsubr
        vstem
        104 590 rmoveto
        -13 -70 -71 callgsubr
        -91 -520 -79 callsubr
        55 315 rlineto
        0 56 60 60 55 33 -40 -55 -10 vhcurveto
        -49 -280 rlineto
        100 hlineto
        49 280 21 callgsubr
        -54 -50 0 hvcurveto
        21 120 rlineto
        135 -19 callgsubr
        -135 hlineto
        19 110 rlineto
        -70 hlineto
        -35 -30 -14 -80 rlineto
        endchar
      </CharString>
      <CharString index="23">
        435 10 callgsubr
        -315 hlineto
        408 555 13 75 2 callgsubr
        310 hlineto
        -408 -555 -13 -75 rlineto
        return
      </CharString>
      <CharString index="24">
        -60 70 vlineto
        -52 callsubr
        -66 -375 rlineto
        return
      </CharString>
      <CharString index="25">
        533 730 rmoveto
        -230 -188 -160 32 callgsubr
        132 -160 230 hhcurveto
        230 188 160 220 39 hvcurveto
        220 39 -132 160 -230 -38 callsubr
        170 107 -130 -180 -32 hvcurveto
        -180 -32 -152 -130 -170 hhcurveto
        -170 -108 130 180 32 hvcurveto
        180 32 153 130 170 hhcurveto
        return
      </CharString>
      <CharString index="26">
        3 -77 callgsubr
        hstem
        228 6 callsubr
        -110 hlineto
        119 -345 -247 -355 -1 callgsubr
        161 235 rlineto
        12 17 14 28 0 vvcurveto
        4 hlineto
        0 4 -28 6 -17 vhcurveto
        79 -235 -1 callgsubr
        -123 355 241 345 rlineto
        -110 hlineto
        -155 -225 rlineto
        -12 -17 -14 -28 -87 callgsubr
        -4 28 -6 17 vhcurveto
        endchar
      </CharString>
      <CharString index="27">
        1 60 rlineto
        -70 -74 callgsubr
        return
      </CharString>
      <CharString index="28">
        -58 callsubr
        225 70 145 70 return
      </CharString>
      <CharString index="29">
        265 hmoveto
        4 callsubr
        180 hlineto
        12 70 rlineto
        -460 -58 callgsubr
        180 hlineto
        -111 -630 rlineto
        return
      </CharString>
      <CharString index="30">
        21 -65 callsubr
        return
      </CharString>
      <CharString index="31">
        349 80 rmoveto
        0 -44 -20 -55 -65 -33 callsubr
        vhcurveto
        135 23 59 50 55 hhcurveto
        60 35 -60 0 hvcurveto
        return
      </CharString>
      <CharString index="32">
        rlineto
        -100 -75 callsubr
        return
      </CharString>
      <CharString index="33">
        hlineto
        -23 callgsubr
        100 hlineto
        return
      </CharString>
      <CharString index="34">
        645 rmoveto
        -30 -5 21 -25 25 hhcurveto
        -8 -40 -56 -7 callgsubr
        25 -31 rlineto
        0 88 46 19 106 vhcurveto
        39 -59 callgsubr
        -25 -29 -25 -30 -6 hvcurveto
        return
      </CharString>
      <CharString index="35">
        -10 70 155 -19 callsubr
        return
      </CharString>
      <CharString index="36">
        rlineto
        65 hlineto
        return
      </CharString>
      <CharString index="37">
        463 445 rmoveto
        20 30 25 55 0 vvcurveto
        4 hlineto
        0 -14 -55 -5 -30 vhcurveto
        -78 -445 rlineto
        100 -94 callgsubr
        -299 -445 rlineto
        -20 -30 -25 -15 callgsubr
        14 55 5 30 vhcurveto
        79 445 -75 callgsubr
        return
      </CharString>
      <CharString index="38">
        380 10 callgsubr
        -250 hlineto
        307 355 14 75 rlineto
        -365 -14 callsubr
        245 hlineto
        -307 -355 -13 -75 rlineto
        return
      </CharString>
      <CharString index="39">
        0 hvcurveto
        5 hlineto
        return
      </CharString>
      <CharString index="40">
        -700 rlineto
        return
      </CharString>
      <CharString index="41">
        rmoveto
        -95 callgsubr
        390 hlineto
        -60 callgsubr
        4 callsubr
        return
      </CharString>
      <CharString index="42">
        rmoveto
        -75 hlineto
        -11 -60 rlineto
        240 hlineto
        11 60 rlineto
        -75 34 callgsubr
        -85 hlineto
        -109 -80 22 -45 66 35 rlineto
        return
      </CharString>
      <CharString index="43">
        700 rlineto
        return
      </CharString>
      <CharString index="44">
        rlineto
        50 hlineto
        120 57 -70 -210 -37 hvcurveto
        -210 -37 -82 -70 -1 callsubr
        return
      </CharString>
      <CharString index="45">
        43 -61 callsubr
        return
      </CharString>
      <CharString index="46">
        hlineto
        165 94 80 140 24 -3 callgsubr
        -165 -38 callsubr
        95 -33 callgsubr
        return
      </CharString>
      <CharString index="47">
        12 70 rlineto
        -290 hlineto
        return
      </CharString>
      <CharString index="48">
        7 -21 25 -35 hhcurveto
        return
      </CharString>
      <CharString index="49">
        hlineto
        -12 -70 rlineto
        return
      </CharString>
      <CharString index="50">
        rmoveto
        1 -24 -40 -30 hhcurveto
        hintmask 00000100
        -30 -2 45 -50 hhcurveto
        -50 -32 -40 -45 -23 hvcurveto
        36 -25 rlineto
        9 hlineto
        -1 24 40 30 hhcurveto
        hintmask 00010000
        30 2 -45 50 hhcurveto
        50 32 40 45 23 hvcurveto
        -36 25 rlineto
        endchar
      </CharString>
      <CharString index="51">
        -48 callgsubr
        hstem
        return
      </CharString>
      <CharString index="52">
        hlineto
        35 19 -20 -30 2 hvcurveto
        9 -95 rlineto
        hintmask 10110100
        -54 4 26 -31 55 hhcurveto
        hintmask 01110100
        35 27 10 0 hvcurveto
        1 65 rlineto
        -5 hlineto
        hintmask 10110100
        0 -11 -5 -10 -15 -8 10 20 -2 vhcurveto
        -8 95 return
      </CharString>
      <CharString index="53">
        rlineto
        -100 -74 callgsubr
        return
      </CharString>
      <CharString index="54">
        rlineto
        190 hlineto
        165 94 80 130 23 hvcurveto
        130 22 -65 80 -165 hhcurveto
        -13 -70 rmoveto
        95 41 -50 -90 -15 hvcurveto
        -90 -16 -59 -50 -95 hhcurveto
        -90 34 callgsubr
        endchar
      </CharString>
      <CharString index="55">
        rmoveto
        -20 -12 15 20 3 hvcurveto
        return
      </CharString>
      <CharString index="56">
        140 24 59 50 return
      </CharString>
      <CharString index="57">
        115 21 -66 80 -130 hhcurveto
        -80 -63 -15 0 hvcurveto
        35 195 rlineto
        180 hlineto
        12 70 rlineto
        -420 -58 callgsubr
        140 hlineto
        -111 -630 -79 callsubr
        return
      </CharString>
      <CharString index="58">
        100 85 175 31 vhcurveto
        175 30 -70 85 return
      </CharString>
      <CharString index="59">
        21 -3 callsubr
        return
      </CharString>
      <CharString index="60">
        -10 75 -44 -3 callsubr
        return
      </CharString>
      <CharString index="61">
        70 260 70 return
      </CharString>
      <CharString index="62">
        1 -31 -22 -30 hhcurveto
        endchar
      </CharString>
      <CharString index="63">
        -10 70 640 -20 return
      </CharString>
      <CharString index="64">
        -155 55 -55 155 return
      </CharString>
      <CharString index="65">
        70 -12 callgsubr
        return
      </CharString>
      <CharString index="66">
        140 25 return
      </CharString>
      <CharString index="67">
        -12 13 callsubr
        80 hlineto
        39 220 -51 callsubr
        4 callsubr
        return
      </CharString>
      <CharString index="68">
        325 430 rmoveto
        30 34 -10 0 hvcurveto
        10 hlineto
        return
      </CharString>
      <CharString index="69">
        -41 callgsubr
        vhcurveto
        140 24 return
      </CharString>
      <CharString index="70">
        55 0 hvcurveto
        return
      </CharString>
      <CharString index="71">
        -21 216 -20 return
      </CharString>
      <CharString index="72">
        rlineto
        165 hlineto
        14 80 rlineto
        -165 hlineto
        29 165 rlineto
        -80 hlineto
        -29 -165 rlineto
        -165 -31 callsubr
        165 hlineto
        return
      </CharString>
      <CharString index="73">
        0 -29 10 -35 -95 -57 -70 0 vhcurveto
        -5 hlineto
        return
      </CharString>
      <CharString index="74">
        41 -50 -100 -18 hvcurveto
        return
      </CharString>
      <CharString index="75">
        150 hstemhm
        return
      </CharString>
      <CharString index="76">
        25 35 6 hvcurveto
        return
      </CharString>
</ttFont>
